<?xml version="1.0" encoding="UTF-8" standalone="no"?>
<svg
   xmlns:dc="http://purl.org/dc/elements/1.1/"
   xmlns:cc="http://creativecommons.org/ns#"
   xmlns:rdf="http://www.w3.org/1999/02/22-rdf-syntax-ns#"
   xmlns:svg="http://www.w3.org/2000/svg"
   xmlns="http://www.w3.org/2000/svg"
   xmlns:sodipodi="http://sodipodi.sourceforge.net/DTD/sodipodi-0.dtd"
   xmlns:inkscape="http://www.inkscape.org/namespaces/inkscape"
   width="512"
   height="512"
   viewBox="0 0 512 512"
   version="1.1"
   id="svg8"
   inkscape:version="1.0.2 (e86c870879, 2021-01-15)"
   sodipodi:docname="logo_x512_colored.svg">
  <defs
     id="defs2">
    <marker
       style="overflow:visible"
       id="Arrow1Lstart"
       refX="0.0"
       refY="0.0"
       orient="auto"
       inkscape:stockid="Arrow1Lstart"
       inkscape:isstock="true">
      <path
         transform="scale(0.8) translate(12.5,0)"
         style="fill-rule:evenodd;stroke:#000000;stroke-width:1.0pt"
         d="M 0.0,0.0 L 5.0,-5.0 L -12.5,0.0 L 5.0,5.0 L 0.0,0.0 z "
         id="path1749" />
    </marker>
  </defs>
  <sodipodi:namedview
     id="base"
     pagecolor="#ffffff"
     bordercolor="#666666"
     borderopacity="1.0"
     inkscape:pageopacity="0.0"
     inkscape:pageshadow="2"
     inkscape:zoom="0.93738581"
     inkscape:cx="388.34355"
     inkscape:cy="257.4733"
     inkscape:document-units="px"
     inkscape:current-layer="layer6"
     inkscape:document-rotation="0"
     showgrid="true"
     units="px"
     scale-x="1"
     inkscape:pagecheckerboard="false"
     objecttolerance="10"
     gridtolerance="10000"
     inkscape:window-width="1600"
     inkscape:window-height="820"
     inkscape:window-x="0"
     inkscape:window-y="44"
     inkscape:window-maximized="1"
     showguides="false"
     inkscape:lockguides="false" />
  <metadata
     id="metadata5">
    <rdf:RDF>
      <cc:Work
         rdf:about="">
        <dc:format>image/svg+xml</dc:format>
        <dc:type
           rdf:resource="http://purl.org/dc/dcmitype/StillImage" />
        <dc:title></dc:title>
      </cc:Work>
    </rdf:RDF>
  </metadata>
  <g
     inkscape:label="Letter A"
     inkscape:groupmode="layer"
     id="layer1"
     style="display:inline"
     sodipodi:insensitive="true">
    <path
       id="path1361"
       style="fill:#aa0000;stroke-width:3;stroke-linecap:round;stroke-linejoin:round;stroke-miterlimit:4;stroke-dasharray:none"
       d="M 393.76665,36.042384 C 357.34061,54.474335 324.94963,70.450158 301.3659,75.359393 281.42619,80.344323 231.21287,93.769968 137.3437,60.569935 l -18.58179,-5.379204 c -0.55451,14.38828 -6.16435,26.504345 -14.12626,34.466255 -7.859716,7.8597 -18.16326,12.451834 -25.66575,15.143714 l 25.06669,69.25732 c 7.41254,-13.56772 16.71373,-23.26201 25.64153,-29.21388 8.52362,-5.68241 17.10129,-8.54577 23.86687,-10.30969 L 139.98301,95.552804 c 27.28498,8.975746 40.62315,14.090676 87.36296,19.983876 L 188.592,144.7271 150.14636,265.66243 c -11.51588,-0.76199 -29.86051,-0.26039 -39.62851,-0.26039 l 19.04316,29.54798 c 1.61942,-0.095 4.04032,1.05573 10.04837,0.37931 -9.26738,24.55183 -17.88995,51.49389 -25.66343,74.18262 -7.05232,16.94118 -16.263491,31.81468 -26.316811,44.38134 -5.84686,7.30857 -12.819059,14.63548 -16.852949,19.83511 9.362151,-0.1282 11.163733,-6.00082 21.283673,-2.6897 27.418467,15.42215 62.685267,30.77397 88.293657,44.80797 4.90658,2.72588 10.50631,6.25457 13.69136,8.88842 9.98931,-23.92695 22.75298,-34.62702 34.99534,-43.19669 11.6994,-8.18957 29.11998,-22.18748 33.53515,-35.18456 -23.54281,7.76029 -38.26963,14.30301 -49.66522,14.26783 -19.89162,-8.54969 -38.59998,-17.25921 -53.35194,-24.63687 -2.01596,-4.47807 -2.26426,-3.40606 -1.82379,-10.19139 6.8592,-31.4652 18.65684,-59.55273 26.77169,-90.77314 51.28115,1.14153 94.32151,-0.0819 140.27081,-0.0819 0.34819,29.72148 0.32533,74.7836 0.32533,105.49873 l -0.2399,24.99651 c 21.22855,25.03502 38.59848,35.55902 79.66287,55.11633 l 14.76844,4.58921 c 5.07889,-29.09999 13.40051,-48.00314 21.40592,-61.55076 7.33428,-12.41186 16.13919,-23.23244 18.19752,-37.81986 -8.28175,6.22711 -18.70237,14.98419 -31.98105,20.60697 -11.1045,4.70212 -16.73661,4.53842 -23.45543,0.27455 -6.71881,-4.26386 -9.1482,-10.90864 -9.31058,-28.02361 l 0.15165,-174.09376 z m -68.99759,69.242526 c -0.44801,24.9347 0.53481,143.91512 0.56409,159.67194 l -130.75928,-0.45259 c 13.25545,-39.49444 27.5375,-83.29194 38.70218,-124.10946 9.64464,-8.83258 20.55055,-17.183 30.70632,-25.64614 17.75878,-0.52639 40.59532,-4.19393 60.78669,-9.46375 z"
       sodipodi:nodetypes="ccccsccscccccccccsccccsccccccccccscssscccccccc" />
    <path
       id="rect1324"
       style="fill:#000000;stroke-width:2.56571;stroke-linecap:round;stroke-linejoin:round;stroke-miterlimit:4;stroke-dasharray:none"
       d="m 393.98633,33.5 a 1.50015,1.50015 0 0 0 -0.78125,0.228516 c 0,0 -39.8602,24.898275 -89.62696,39.830078 -0.003,0.001 -0.006,0.0029 -0.01,0.0039 -20.10254,5.02807 -74.44428,19.883603 -169.04883,-14.970703 a 1.50015,1.50015 0 0 0 -0.0449,-0.01563 l -15,-5 A 1.50015,1.50015 0 0 0 117.5,55 c 0,14.583333 -6.02812,25.407024 -13.93555,33.314453 -7.907417,7.907429 -17.728796,12.824967 -25.039059,15.261717 a 1.50015,1.50015 0 0 0 -0.9375,1.92774 l 24.999999,70 a 1.50015,1.50015 0 0 0 2.75391,0.16601 c 7.38074,-14.76148 17.19504,-24.55841 26.36523,-30.67187 C 140.87722,138.88459 149.5,136.5 154,136.5 a 1.50015,1.50015 0 0 0 1.4043,-2.02734 L 141.47461,97.326172 c 40.12899,13.165048 67.63607,18.198878 83.41797,18.878908 l -36.79297,27.5957 a 1.50015,1.50015 0 0 0 -0.52539,0.73633 L 148.91016,263.5 H 110 a 1.50015,1.50015 0 0 0 -1.24805,2.33203 l 20,30 A 1.50015,1.50015 0 0 0 130,296.5 h 7.875 l -15.28906,42.99805 a 1.50015,1.50015 0 0 0 -0.01,0.0273 l -5,15 -5,15 c -4.88932,14.66796 -16.051373,30.85377 -25.998045,43.28711 -9.946672,12.43334 -18.638672,21.12695 -18.638672,21.12695 a 1.50015,1.50015 0 0 0 1.730469,2.40235 c 0,0 9.631746,-4.71237 19.039062,-4.81055 l 79.621096,39.81055 c 0,0 4.97439,2.48707 10.5664,5.59375 5.59202,3.10667 11.89653,6.97855 14.04297,9.125 a 1.50015,1.50015 0 0 0 2.45313,-0.50391 c 9.89114,-24.72786 22.02178,-34.36661 34.4668,-43.07812 12.445,-8.71152 25.32589,-16.49555 35.48242,-36.8086 a 1.50015,1.50015 0 0 0 -1.95118,-2.04101 c -22.4199,9.96441 -36.06338,13.66855 -43.99414,14.88867 -3.96537,0.61006 -6.49977,0.59879 -7.98828,0.45703 -0.74425,-0.0709 -1.22804,-0.17259 -1.5,-0.24609 -0.27195,-0.0735 -0.23828,-0.0703 -0.23828,-0.0703 l -49.64453,-24.82226 c -0.53081,-0.62126 -1.07696,-3.02141 -0.85742,-6.31446 0.22496,-3.37434 0.99057,-7.53988 1.91797,-11.55859 1.85479,-8.03741 4.33789,-15.48828 4.33789,-15.48828 a 1.50015,1.50015 0 0 0 0.004,-0.0137 L 186.0918,296.5 H 323.5 V 400 425 a 1.50015,1.50015 0 0 0 0.33984,0.95117 c 21.57972,26.33951 49.12212,41.95082 79.55274,55.41992 a 1.50015,1.50015 0 0 0 0.13281,0.0527 l 15,5 a 1.50015,1.50015 0 0 0 1.95508,-1.17774 c 4.9689,-29.81338 13.60417,-47.05625 21.68555,-60.73242 8.08137,-13.67617 15.75224,-23.89435 18.31445,-39.26758 a 1.50015,1.50015 0 0 0 -2.49805,-1.34765 c 0,0 -16.20886,14.8781 -32.04492,21.27344 -7.91803,3.19763 -15.50788,4.18144 -20.97656,0.71093 C 399.49225,402.41234 395.5,394.13426 395.5,377.5 V 204.70898 35 a 1.50015,1.50015 0 0 0 -1.51367,-1.5 z M 392.5,37.623047 V 204.70898 377.5 c 0,17.11574 4.13275,26.6502 10.85156,30.91406 6.71882,4.26387 15.37897,2.90391 23.71094,-0.46094 12.15066,-4.90699 23.94599,-14.17376 29.5293,-18.88867 -3.0482,12.32757 -9.67354,21.51002 -17.00782,33.92188 -8.00541,13.54762 -16.65548,30.94884 -21.73437,60.04883 l -13.30078,-4.4336 C 374.47087,465.28407 347.59216,449.99306 326.5,424.42969 V 400 295 A 1.50015,1.50015 0 0 0 325,293.5 H 185 a 1.50015,1.50015 0 0 0 -1.42773,1.03906 l -21,65 c -0.007,0.0213 -2.51567,7.54707 -4.40821,15.74805 -0.9476,4.10629 -1.74449,8.37825 -1.98828,12.03516 -0.24379,3.6569 -0.19343,6.78117 1.76367,8.73828 a 1.50015,1.50015 0 0 0 0.39063,0.28125 l 50,25 a 1.5,1.5 0 0 0 0.34375,0.12109 c 0.1443,0.0576 0.1968,0.0909 0.45312,0.16016 0.4507,0.12181 1.09972,0.25447 1.9961,0.33984 1.79274,0.17074 4.57084,0.15947 8.73047,-0.48047 7.77461,-1.19609 20.68913,-4.80158 40.73632,-13.43164 -9.45384,16.8223 -20.74982,23.78113 -32.44922,31.9707 -12.24236,8.56967 -24.76459,18.74102 -34.7539,42.66797 -3.18505,-2.63385 -8.12662,-5.64912 -13.0332,-8.375 -5.65799,-3.14332 -10.6836,-5.65625 -10.6836,-5.65625 l -79.999998,-40 A 1.50015,1.50015 0 0 0 89,428.5 c -5.222024,0 -10.354585,1.27787 -14.203125,2.56055 3.516531,-3.77234 8.278145,-9.06448 14.125,-16.37305 10.053328,-12.56666 21.391275,-28.88085 26.501955,-44.21289 l 5,-15 4.99414,-14.98633 15.99609,-44.98633 A 1.50015,1.50015 0 0 0 140,293.5 h -9.19727 l -18,-27 H 150 a 1.50015,1.50015 0 0 0 1.42578,-1.03711 l 38.85352,-119.54687 39.62109,-29.7168 A 1.50015,1.50015 0 0 0 229,113.5 c -14.66667,0 -44.62026,-4.95545 -89.52539,-19.923828 a 1.50015,1.50015 0 0 0 -1.87891,1.951172 l 14.32422,38.197266 c -5.52728,0.52562 -13.35333,3.09493 -21.87695,8.77734 -8.9278,5.95187 -18.2984,15.40103 -25.71094,28.96875 L 80.902344,105.86719 c 7.502481,-2.69188 16.923491,-7.57194 24.783206,-15.431643 7.96191,-7.961913 14.15252,-19.000385 14.70703,-33.388672 l 13.13281,4.376953 c 95.27849,35.091118 150.89818,20.016178 170.83789,15.03125 a 1.50015,1.50015 0 0 0 0.0684,-0.01758 C 350.5769,62.593913 386.68746,41.158356 392.5,37.623047 Z M 324.98633,103.5 a 1.50015,1.50015 0 0 0 -0.36524,0.0488 c -30.20954,7.88122 -39.64341,8.6356 -60.71484,9.95508 a 1.50015,1.50015 0 0 0 -0.86719,0.34375 l -30,25 a 1.50015,1.50015 0 0 0 -0.4707,0.70507 l -39,125 A 1.50015,1.50015 0 0 0 195,266.5 h 130 a 1.50015,1.50015 0 0 0 1.5,-1.5 V 105 a 1.50015,1.50015 0 0 0 -1.51367,-1.5 z M 323.5,106.9082 V 263.5 H 197.03906 l 38.26172,-122.63086 29.29102,-24.4082 c 20.20547,-1.26903 30.53327,-2.23301 58.9082,-9.55274 z" />
  </g>
  <g
     inkscape:groupmode="layer"
     id="g4621"
     inkscape:label="Dolch"
     style="display:inline"
     sodipodi:insensitive="true">
    <path
       style="display:inline;opacity:1;fill:#917c6f;fill-opacity:1;stroke-width:1.07143;stroke-linecap:round;stroke-linejoin:round;stroke-miterlimit:4;stroke-dasharray:none"
       d="m 24,295 v -30 c 3.944383,-8.32403 18.510249,-15.63468 20,-15 3.323328,4.14993 13.10372,13.75751 15,15 l -15,15 15,15 c -8.653918,4.18611 -9.258769,10.20205 -15,15 -10.97938,-3.90381 -14.55416,-7.95955 -20,-15 z"
       id="path4549"
       sodipodi:nodetypes="cccccccc" />
    <path
       style="display:inline;opacity:1;fill:#6c5d53;fill-opacity:1;stroke-width:1.07143;stroke-linecap:round;stroke-linejoin:round;stroke-miterlimit:4;stroke-dasharray:none"
       d="m 169,350 c -2.10279,-8.63621 7.97645,-20.28989 5,-30 v -70 c -0.81372,-24.90026 11.39307,-24.87738 15,-40 -2.21582,1.24251 0.81626,7.16767 -10,10 -3.03593,0.27651 -10.49836,-1.72768 -10.91207,-10.99882 3.10342,-23.29479 35.72947,-26.7822 40.2213,-2.52818 C 210.46398,224.2083 202.84017,218.10807 204,250 v 60 c -1.53748,24.28076 -8.74143,18.8572 -15,40 3.00404,-7.32982 2.57227,-9.84299 10,-10 5.78453,-0.43396 10.51313,3.71142 10,10 -1.97227,30.41654 -41.52443,24.15968 -40,0 z"
       id="path4551"
       sodipodi:nodetypes="ccccccccccccc" />
    <path
       style="display:inline;opacity:1;fill:#6c5d53;fill-opacity:1;stroke-width:0.757614;stroke-linecap:round;stroke-linejoin:round;stroke-miterlimit:4;stroke-dasharray:none"
       d="M 59,295 44,280 59,265 c -5.352967,-2.08583 -11.559698,-9.39181 -15,-15 9.902887,4.34075 23.462852,9.12158 35,10 v 40 c -13.212006,0.97849 -24.197546,5.24052 -35,10 2.118493,-4.07616 8.059777,-12.91028 15,-15 z"
       id="path4535"
       sodipodi:nodetypes="cccccccc" />
    <path
       style="display:inline;opacity:1;fill:#784421;fill-opacity:1;stroke-width:0.757614;stroke-linecap:round;stroke-linejoin:round;stroke-miterlimit:4;stroke-dasharray:none"
       d="m 79,300 v -40 c 28.85048,-8.24934 67.97811,-6.58735 95,0 v 40 c -20.56655,5.80692 -68.16331,8.69587 -95,0 z"
       id="path4543"
       sodipodi:nodetypes="ccccc" />
    <path
       style="display:inline;opacity:1;fill:#c8beb7;fill-opacity:1;stroke-width:1.07143;stroke-linecap:round;stroke-linejoin:round;stroke-miterlimit:4;stroke-dasharray:none"
       d="M 204,280 V 250 H 409.62419 L 484,280 Z"
       id="path4545"
       sodipodi:nodetypes="ccccc" />
    <path
       style="display:inline;opacity:1;fill:#917c6f;fill-opacity:1;stroke-width:1.07143;stroke-linecap:round;stroke-linejoin:round;stroke-miterlimit:4;stroke-dasharray:none"
       d="m 204,280 h 280 l -74.37581,30 H 204 Z"
       id="path4547"
       sodipodi:nodetypes="ccccc" />
    <path
       id="path4571"
       style="color:#000000;font-style:normal;font-variant:normal;font-weight:normal;font-stretch:normal;font-size:medium;line-height:normal;font-family:sans-serif;font-variant-ligatures:normal;font-variant-position:normal;font-variant-caps:normal;font-variant-numeric:normal;font-variant-alternates:normal;font-variant-east-asian:normal;font-feature-settings:normal;font-variation-settings:normal;text-indent:0;text-align:start;text-decoration:none;text-decoration-line:none;text-decoration-style:solid;text-decoration-color:#000000;letter-spacing:normal;word-spacing:normal;text-transform:none;writing-mode:lr-tb;direction:ltr;text-orientation:mixed;dominant-baseline:auto;baseline-shift:baseline;text-anchor:start;white-space:normal;shape-padding:0;shape-margin:0;inline-size:0;clip-rule:nonzero;display:inline;overflow:visible;visibility:visible;opacity:1;isolation:auto;mix-blend-mode:normal;color-interpolation:sRGB;color-interpolation-filters:linearRGB;solid-color:#000000;solid-opacity:1;vector-effect:none;fill:#000000;fill-opacity:1;fill-rule:nonzero;stroke:none;stroke-linecap:round;stroke-linejoin:round;stroke-miterlimit:4;stroke-dasharray:none;stroke-dashoffset:0;stroke-opacity:1;color-rendering:auto;image-rendering:auto;shape-rendering:auto;text-rendering:auto;enable-background:accumulate;stop-color:#000000;stop-opacity:1"
       d="m 189,188.5 c -10.5,0 -16.16291,5.47231 -18.8418,10.83008 C 167.47932,204.68785 167.5,210 167.5,210 c 0,0 -0.0207,2.81215 1.4082,5.66992 1.41934,2.83866 4.55219,5.78682 9.98438,5.82617 A 1.5,1.5 0 0 0 179,221.5 c 1.26382,0 2.37216,-0.19239 3.39648,-0.46875 -0.71769,0.77951 -1.25133,1.45273 -2.03515,2.36719 -3.87992,4.52655 -7.84327,11.32693 -7.85938,26.51172 A 1.5,1.5 0 0 0 172.5,250 v 7.98047 c -7.85527,-2.20072 -19.21742,-3.27588 -29.03711,-3.85352 -10.58948,-0.6229 -19.23668,-0.62497 -19.37305,-0.625 A 1.5,1.5 0 0 0 124,253.5 h -5 c 0,0 -24.712341,-0.0767 -40.205078,4.99414 -1.067099,-0.0123 -15.152839,-0.34985 -34.125,-9.83594 a 1.5,1.5 0 0 0 -0.0098,-0.004 1.5,1.5 0 0 0 -0.0293,-0.0156 1.5,1.5 0 0 0 -0.002,0 1.5,1.5 0 0 0 -0.0098,-0.006 1.5,1.5 0 0 0 -0.04297,-0.0176 1.5,1.5 0 0 0 -0.04102,-0.0176 1.5,1.5 0 0 0 -0.05469,-0.0195 1.5,1.5 0 0 0 -0.04297,-0.0137 1.5,1.5 0 0 0 -0.0078,-0.002 1.5,1.5 0 0 0 -0.0918,-0.0234 1.5,1.5 0 0 0 -0.09766,-0.0195 1.5,1.5 0 0 0 -0.002,0 1.5,1.5 0 0 0 -0.002,0 1.5,1.5 0 0 0 -0.0098,-0.002 1.5,1.5 0 0 0 -0.0039,0 1.5,1.5 0 0 0 -0.164062,-0.0156 1.5,1.5 0 0 0 -0.03516,-0.002 1.5,1.5 0 0 0 -0.04883,0 1.5,1.5 0 0 0 -0.04492,0.002 1.5,1.5 0 0 0 -0.04102,0.002 1.5,1.5 0 0 0 -0.01758,0.002 1.5,1.5 0 0 0 -0.0098,0.002 1.5,1.5 0 0 0 -0.01367,0 1.5,1.5 0 0 0 -0.0332,0.004 1.5,1.5 0 0 0 -0.04492,0.006 1.5,1.5 0 0 0 -0.03125,0.006 1.5,1.5 0 0 0 -0.01172,0.002 1.5,1.5 0 0 0 -0.03711,0.008 1.5,1.5 0 0 0 -0.02148,0.004 1.5,1.5 0 0 0 -0.0039,0.002 1.5,1.5 0 0 0 -0.01758,0.004 1.5,1.5 0 0 0 -0.03516,0.008 1.5,1.5 0 0 0 -0.01563,0.004 1.5,1.5 0 0 0 -0.06055,0.0195 1.5,1.5 0 0 0 -0.0098,0.002 c 0,0 -3.885956,1.29477 -8.394532,3.8711 -4.508575,2.57632 -9.749049,6.43559 -12.472656,11.88281 A 1.50015,1.50015 0 0 0 22.5,265 v 30 a 1.50015,1.50015 0 0 0 0.158203,0.66992 c 2.723607,5.44722 7.964081,9.30649 12.472656,11.88281 4.420513,2.52601 8.194179,3.80198 8.341797,3.85157 a 1.5,1.5 0 0 0 0.01758,0.006 c 0.0013,4.4e-4 0.03516,0.0137 0.03516,0.0137 a 1.5,1.5 0 0 0 0.0059,0.002 1.5,1.5 0 0 0 0.0293,0.008 1.5,1.5 0 0 0 0.01953,0.006 1.5,1.5 0 0 0 0.09375,0.0234 1.5,1.5 0 0 0 0.01367,0.004 1.5,1.5 0 0 0 0.03711,0.008 1.5,1.5 0 0 0 0.01367,0.002 1.5,1.5 0 0 0 0.01172,0.002 1.5,1.5 0 0 0 0.05859,0.01 1.5,1.5 0 0 0 0.01758,0.002 1.5,1.5 0 0 0 0.002,0 1.5,1.5 0 0 0 0.0293,0.004 1.5,1.5 0 0 0 0.02539,0.002 1.5,1.5 0 0 0 0.148438,0.004 1.5,1.5 0 0 0 0.01367,0 1.5,1.5 0 0 0 0.04102,-0.004 1.5,1.5 0 0 0 0.0039,0 1.5,1.5 0 0 0 0.0039,0 1.5,1.5 0 0 0 0.05469,-0.004 1.5,1.5 0 0 0 0.04297,-0.004 1.5,1.5 0 0 0 0.160156,-0.0293 1.5,1.5 0 0 0 0.08594,-0.0234 1.5,1.5 0 0 0 0.01172,-0.004 1.5,1.5 0 0 0 0.0039,-0.002 1.5,1.5 0 0 0 0.216797,-0.0879 c 0.0147,-0.007 0.02828,-0.0141 0.04297,-0.0215 a 1.5,1.5 0 0 0 0.0098,-0.004 c 18.945292,-9.45989 33.006174,-9.79822 34.072266,-9.81055 15.408373,5.04323 39.848477,4.99291 40.115237,4.99219 A 1.5,1.5 0 0 0 119,306.5 h 5 c 0,0 8.7897,8.8e-4 19.46289,-0.62695 9.81969,-0.57764 21.18184,-1.6528 29.03711,-3.85352 V 320 c 0,9.875 -1.16819,13.25739 -2.39258,16.31836 -1.2191,3.04779 -2.59363,5.99652 -2.60547,13.58984 a 1.5,1.5 0 0 0 0,0.002 1.5,1.5 0 0 0 -0.002,0.0898 1.5,1.5 0 0 0 0.004,0.11328 c 0.001,0.31397 0.0584,5.36481 2.65429,10.55664 C 172.83709,366.02769 178.5,371.5 189,371.5 c 10.5,0 16.16291,-5.47231 18.8418,-10.83008 2.58585,-5.17171 2.65056,-10.19296 2.65234,-10.54297 A 1.5,1.5 0 0 0 210.5,350 c 0,0 -0.004,-0.0879 -0.004,-0.10352 a 1.5,1.5 0 0 0 0,-0.004 c -0.002,-0.28647 -0.0546,-2.86315 -1.40429,-5.5625 -1.41934,-2.83866 -4.55219,-5.78682 -9.98438,-5.82617 A 1.5,1.5 0 0 0 199,338.5 a 1.5,1.5 0 0 0 -0.1543,0.008 c -1.84568,0.0241 -3.34416,0.45482 -4.68164,1.03125 1.10559,-1.57721 2.19302,-3.09915 3.53516,-4.88867 3.66822,-4.89096 7.47062,-11.3255 7.77148,-23.15039 h 204.12305 0.0312 a 1.5,1.5 0 0 0 0.0332,-0.002 1.5,1.5 0 0 0 0.0371,0 1.5,1.5 0 0 0 0.0332,-0.002 1.5,1.5 0 0 0 0.0703,-0.006 1.5,1.5 0 0 0 0.0312,-0.004 1.5,1.5 0 0 0 0.0703,-0.0117 1.5,1.5 0 0 0 0.008,-0.002 1.5,1.5 0 0 0 0.0918,-0.0215 1.5,1.5 0 0 0 0.0996,-0.0293 1.5,1.5 0 0 0 0.0859,-0.0313 l 0.041,-0.0156 a 1.5,1.5 0 0 0 0.01,-0.006 l 74.32422,-29.97852 a 1.50015,1.50015 0 0 0 0,-2.78124 l -74.34571,-29.98829 a 1.5,1.5 0 0 0 -0.0293,-0.0117 1.5,1.5 0 0 0 -0.0684,-0.0254 1.5,1.5 0 0 0 -0.0293,-0.01 1.5,1.5 0 0 0 -0.0684,-0.0215 1.5,1.5 0 0 0 -0.0293,-0.008 1.5,1.5 0 0 0 -0.0703,-0.0156 1.5,1.5 0 0 0 -0.0312,-0.006 1.5,1.5 0 0 0 -0.0703,-0.0117 1.5,1.5 0 0 0 -0.0312,-0.004 1.5,1.5 0 0 0 -0.0723,-0.006 1.5,1.5 0 0 0 -0.006,0 1.5,1.5 0 0 0 -0.084,-0.002 H 205.5 V 240 c 0,-9.875 1.16819,-13.25739 2.39258,-16.31836 C 209.11696,220.62067 210.5,217.66667 210.5,210 c 0,0 0.0207,-5.31215 -2.6582,-10.66992 C 205.16291,193.97231 199.5,188.5 189,188.5 Z m 0,3 c 9.5,0 13.83709,4.52769 16.1582,9.16992 C 207.47932,205.31215 207.5,210 207.5,210 c 0,7.33333 -1.11696,9.37933 -2.39258,12.56836 -1.27154,3.17887 -2.59702,7.28716 -2.60547,17.3418 A 1.5,1.5 0 0 0 202.5,240 v 70 c 0,12.2 -3.52122,17.94561 -7.19922,22.84961 -3.31852,4.42469 -6.83969,8.45872 -7.52734,15.05273 C 187.55054,349.11698 187.5,350 187.5,350 a 1.50015,1.50015 0 0 0 3,0 c 0,-0.56933 0.14829,-0.98504 0.19141,-1.50781 0.14502,-0.7988 0.39126,-1.80402 0.90039,-2.82227 C 192.66291,343.52769 194.5,341.5 199,341.5 c 4.5,0 6.33709,2.02769 7.4082,4.16992 C 207.47932,347.81215 207.5,350 207.5,350 c 0,0 -0.0207,4.68785 -2.3418,9.33008 C 202.83709,363.97231 198.5,368.5 189,368.5 c -9.5,0 -13.83709,-4.52769 -16.1582,-9.16992 C 170.52068,354.68785 170.5,350 170.5,350 c 0,-7.33333 1.11696,-9.37933 2.39258,-12.56836 1.27154,-3.17887 2.59702,-7.28716 2.60547,-17.3418 A 1.5,1.5 0 0 0 175.5,320 v -19.97852 a 1.5,1.5 0 0 0 0,-0.0215 v -20 -19.92969 a 1.5,1.5 0 0 0 0,-0.10156 V 250 c 0,-14.75 3.52649,-20.43422 7.13867,-24.64844 1.80609,-2.10711 3.72663,-3.85166 5.26563,-6.16015 1.21803,-1.82706 1.96586,-4.19407 2.29492,-7.00977 C 190.43591,210.92743 190.5,210 190.5,210 A 1.50015,1.50015 0 0 0 188.9668,208.52148 1.50015,1.50015 0 0 0 187.5,210 c 0,0.61632 -0.15241,0.99818 -0.20117,1.53516 -0.14607,0.7954 -0.38649,1.78664 -0.89063,2.79492 C 185.33709,216.47231 183.5,218.5 179,218.5 c -4.5,0 -6.33709,-2.02769 -7.4082,-4.16992 C 170.52068,212.18785 170.5,210 170.5,210 c 0,0 0.0207,-4.68785 2.3418,-9.33008 C 175.16291,196.02769 179.5,191.5 189,191.5 Z m 16.5,60 h 203.83398 l 70.65821,28.5 -70.65821,28.5 H 205.5 v -27 h 8.5 205 30 a 1.5,1.5 0 0 0 1.5,-1.5 1.5,1.5 0 0 0 -1.5,-1.5 h -30 -205 -8.5 z m -162.0625,0.3125 c 0.76538,1.11693 2.504056,3.61111 5.035156,6.64844 1.593985,1.91278 3.349843,3.83586 5.097656,5.33398 0.869809,0.74555 1.724986,1.4159 2.609376,1.9043 l -13.240235,13.24023 a 1.50015,1.50015 0 0 0 0,2.1211 l 13.240235,13.24023 c -0.884389,0.4884 -1.739567,1.15875 -2.609376,1.9043 -1.747813,1.49812 -3.503671,3.4212 -5.097656,5.33398 -2.5311,3.03733 -4.269776,5.53151 -5.035156,6.64844 -1.347191,-0.51603 -3.889717,-1.56672 -6.818359,-3.24023 -4.162677,-2.37868 -8.795526,-5.942 -11.119141,-10.37696 v -29.14062 c 2.323615,-4.43496 6.956464,-7.99828 11.119141,-10.37696 2.928642,-1.67351 5.471168,-2.7242 6.818359,-3.24023 z m 5.136719,1.96289 c 14.24345,6.20858 25.202451,7.41616 28.925781,7.64844 v 37.15234 c -3.72333,0.23228 -14.682331,1.43986 -28.925781,7.64844 0.675835,-0.88307 1.417293,-1.82068 2.203125,-2.76367 1.531015,-1.83722 3.212657,-3.66414 4.746094,-4.97852 C 57.056873,297.16805 58.5,296.5 59,296.5 a 1.50015,1.50015 0 0 0 1.060547,-2.56055 L 46.121094,280 60.060547,266.06055 A 1.50015,1.50015 0 0 0 59,263.5 c -0.5,0 -1.943127,-0.66805 -3.476562,-1.98242 -1.533437,-1.31438 -3.215079,-3.1413 -4.746094,-4.97852 -0.785832,-0.94299 -1.52729,-1.8806 -2.203125,-2.76367 z M 119,256.5 h 5 c 0,0 8.7103,8.8e-4 19.28711,0.62305 10.09408,0.59376 21.92254,1.79712 29.21289,3.98242 V 280 298.89453 c -7.29035,2.1853 -19.11881,3.38866 -29.21289,3.98242 C 132.7103,303.49912 124,303.5 124,303.5 h -5 c 0,0 -23.857665,-0.0905 -38.5,-4.61523 V 261.14453 C 95.139377,256.60956 119,256.5 119,256.5 Z" />
  </g>
  <g
     inkscape:groupmode="layer"
     id="layer7"
     inkscape:label="Pergament"
     style="display:inline"
     sodipodi:insensitive="true">
    <path
       id="path3705"
       style="color:#000000;font-style:normal;font-variant:normal;font-weight:normal;font-stretch:normal;font-size:medium;line-height:normal;font-family:sans-serif;font-variant-ligatures:normal;font-variant-position:normal;font-variant-caps:normal;font-variant-numeric:normal;font-variant-alternates:normal;font-variant-east-asian:normal;font-feature-settings:normal;font-variation-settings:normal;text-indent:0;text-align:start;text-decoration:none;text-decoration-line:none;text-decoration-style:solid;text-decoration-color:#000000;letter-spacing:normal;word-spacing:normal;text-transform:none;writing-mode:lr-tb;direction:ltr;text-orientation:mixed;dominant-baseline:auto;baseline-shift:baseline;text-anchor:start;white-space:normal;shape-padding:0;shape-margin:0;inline-size:0;clip-rule:nonzero;display:inline;overflow:visible;visibility:visible;opacity:1;isolation:auto;mix-blend-mode:normal;color-interpolation:sRGB;color-interpolation-filters:linearRGB;solid-color:#000000;solid-opacity:1;vector-effect:none;fill:#000000;fill-opacity:1;fill-rule:nonzero;stroke:none;stroke-linecap:round;stroke-linejoin:round;stroke-miterlimit:4;stroke-dasharray:none;stroke-dashoffset:0;stroke-opacity:1;color-rendering:auto;image-rendering:auto;shape-rendering:auto;text-rendering:auto;enable-background:accumulate;stop-color:#000000;stop-opacity:1"
       d="m 420.63477,190.80273 -0.002,0.002 a 1.50015,1.50015 0 0 0 -0.68164,0.16992 c -18.68921,9.72243 -17.07155,12.61357 -60.29883,20.96875 -0.001,2e-4 -0.003,-2e-4 -0.004,0 -14.89988,2.2517 -24.43507,7.16622 -32.97461,11.06641 -8.5521,3.90591 -16.01117,6.80549 -27.50391,5.5 a 1.50015,1.50015 0 0 0 -1.40039,0.63281 c -30.73259,44.06335 -0.4836,90.9705 -0.0625,91.61914 0.10296,0.18583 24.51835,44.34513 -0.0176,88.50976 a 1.50015,1.50015 0 0 0 1.51563,2.21485 c 30.28499,-4.18965 44.85224,-11.38278 53.58008,-16.2793 l 6.94922,-3.89844 a 1.50015,1.50015 0 0 0 0.01,-0.006 C 394.5303,371.425 414,371.5 419,371.5 a 1.5,1.5 0 0 0 0.0508,-0.002 1.5,1.5 0 0 0 0.0117,0 1.5,1.5 0 0 0 0.0117,0 1.5,1.5 0 0 0 0.084,-0.008 1.5,1.5 0 0 0 0.008,0 1.5,1.5 0 0 0 0.002,0 1.5,1.5 0 0 0 0.0996,-0.0156 1.5,1.5 0 0 0 0.0937,-0.0195 1.5,1.5 0 0 0 0.008,-0.002 1.5,1.5 0 0 0 0.006,-0.002 1.5,1.5 0 0 0 0.0918,-0.0273 1.5,1.5 0 0 0 0.0977,-0.0352 1.5,1.5 0 0 0 0.0859,-0.0371 1.5,1.5 0 0 0 0.008,-0.004 1.5,1.5 0 0 0 0.008,-0.004 1.5,1.5 0 0 0 0.082,-0.0449 1.5,1.5 0 0 0 0.0879,-0.0547 1.5,1.5 0 0 0 0.084,-0.0606 1.5,1.5 0 0 0 0.0781,-0.0664 1.5,1.5 0 0 0 0.0293,-0.0254 1.5,1.5 0 0 0 0.0469,-0.0449 1.5,1.5 0 0 0 0.008,-0.006 1.5,1.5 0 0 0 0.0625,-0.0703 1.5,1.5 0 0 0 0.0566,-0.0723 1.5,1.5 0 0 0 0.008,-0.008 1.5,1.5 0 0 0 0.004,-0.004 1.5,1.5 0 0 0 0.041,-0.0625 1.5,1.5 0 0 0 0.0137,-0.0195 1.5,1.5 0 0 0 0.0195,-0.0332 1.5,1.5 0 0 0 0.0254,-0.043 c 0.009,-0.0156 0.0167,-0.0312 0.0254,-0.0469 a 1.5,1.5 0 0 0 0.002,-0.004 c 25.20431,-45.43295 0.34543,-90.72521 0.0254,-91.30468 a 1.5,1.5 0 0 0 -0.0918,-0.17188 c 0,0 -23.7431,-37.66639 1.69922,-86.20312 a 1.50015,1.50015 0 0 0 -1.33789,-2.19532 z m -3.30665,5.04102 c -22.43274,47.43897 0.0532,84.37669 0.35157,84.86328 a 1.5,1.5 0 0 0 0.01,0.0215 c 0,0 24.30102,43.7826 0.40821,87.7871 -6.07,0.0421 -26.15482,0.93194 -59.8418,20.18165 l -6.9375,3.89257 c -8.27361,4.64169 -21.90811,11.22163 -49.67188,15.40625 22.94907,-44.81131 -1.33593,-88.72461 -1.33593,-88.72461 a 1.50015,1.50015 0 0 0 -0.0547,-0.0937 c 0,0 -29.5075,-45.07175 -0.42969,-87.66015 11.57129,1.08149 19.69871,-1.94316 28.09375,-5.77735 8.64986,-3.95056 17.75146,-8.6602 32.24024,-10.83984 a 1.5,1.5 0 0 0 0.0605,-0.0117 c 0.0144,-0.003 0.0266,-0.005 0.041,-0.008 a 1.5,1.5 0 0 0 0.006,-0.002 c 39.45272,-7.62809 42.94374,-11.25523 57.06054,-19.03516 z" />
    <path
       id="path4383"
       style="display:inline;opacity:1;fill:#d3bc5f;fill-opacity:1;stroke-width:2.44193;stroke-linecap:round;stroke-linejoin:round;stroke-miterlimit:4;stroke-dasharray:none"
       d="m 417.32812,195.84375 c -14.1168,7.77993 -17.60782,11.40707 -57.06054,19.03516 a 1.5,1.5 0 0 1 -0.006,0.002 c -0.0144,0.003 -0.0266,0.005 -0.041,0.008 a 1.5,1.5 0 0 1 -0.0605,0.0117 c -14.48878,2.17964 -23.59038,6.88928 -32.24024,10.83984 -8.39504,3.83419 -16.52246,6.85884 -28.09375,5.77735 -29.07781,42.5884 0.42969,87.66015 0.42969,87.66015 a 1.50015,1.50015 0 0 1 0.0547,0.0937 c 0,0 24.285,43.9133 1.33593,88.72461 27.76377,-4.18462 41.39827,-10.76456 49.67188,-15.40625 l 6.9375,-3.89257 c 33.68698,-19.24971 53.7718,-20.1395 59.8418,-20.18165 23.89281,-44.0045 -0.40821,-87.7871 -0.40821,-87.7871 a 1.5,1.5 0 0 1 -0.01,-0.0215 c -0.29837,-0.48659 -22.7843,-37.42431 -0.35157,-84.86328 z" />
  </g>
  <g
     inkscape:groupmode="layer"
     id="layer6"
     inkscape:label="Federkiel"
     style="display:inline"
     sodipodi:insensitive="true">
    <path
       style="display:inline;opacity:1;mix-blend-mode:normal;fill:#ff6600;fill-opacity:1;stroke-width:3;stroke-linecap:round;stroke-linejoin:round;stroke-miterlimit:4;stroke-dasharray:none"
       d="m 270.97656,22.330078 c 0.39715,-0.02147 0.70882,0.04766 1.01367,0.134766 1.21944,0.34841 2.50228,1.138889 4.16016,2.24414 1.65788,1.105251 3.59122,2.526597 5.63867,4.101563 8.18983,6.299865 18.19922,15.060547 18.19922,15.060547 0.0248,0.02198 0.0489,0.04478 0.0723,0.06836 2.36741,2.367418 7.74081,6.805543 13.7207,12.470703 5.97989,5.665161 12.61546,12.605804 17.7168,20.257813 5.10134,7.652009 8.70521,16.055133 8.375,24.64062 -0.27854,7.24182 -3.4556,14.50003 -10.59571,21.21289 l 7.44727,-1.3457 c 0.009,-0.001 0.0182,-0.003 0.0273,-0.004 0.0285,-0.005 0.0572,-0.009 0.0859,-0.0117 0.026,-0.003 0.052,-0.005 0.0781,-0.006 0.01,-7.5e-4 0.0195,-10e-4 0.0293,-0.002 0.0247,-6.1e-4 0.0495,-6.1e-4 0.0742,0 0.0346,7.6e-4 0.0691,0.003 0.10352,0.006 0.0196,0.002 0.0391,0.004 0.0586,0.006 0.0235,0.003 0.047,0.007 0.0703,0.0117 0.0341,0.006 0.068,0.0132 0.10157,0.0215 0.0242,0.006 0.0483,0.0124 0.0723,0.0195 0.001,6.5e-4 0.003,0.001 0.004,0.002 0.0263,0.008 0.0523,0.0162 0.0781,0.0254 0.005,0.002 0.0104,0.004 0.0156,0.006 0.008,0.003 0.017,0.006 0.0254,0.01 0.007,0.003 0.013,0.006 0.0195,0.01 0.0237,0.009 0.0471,0.0189 0.0703,0.0293 0.001,6.5e-4 0.003,10e-4 0.004,0.002 0.0231,0.0111 0.0459,0.0229 0.0684,0.0352 0.008,0.004 0.0157,0.009 0.0234,0.0137 0.0218,0.0118 0.0433,0.0242 0.0645,0.0371 0.008,0.005 0.0157,0.0103 0.0234,0.0156 0.003,0.002 0.007,0.004 0.01,0.006 0.0253,0.0175 0.05,0.0357 0.0742,0.0547 0.0545,0.042 0.10606,0.0877 0.1543,0.13672 0.0174,0.0178 0.0343,0.036 0.0508,0.0547 0.006,0.007 0.0118,0.0143 0.0176,0.0215 0.0224,0.0259 0.0439,0.0527 0.0644,0.0801 0.0205,0.0273 0.04,0.0553 0.0586,0.084 0.0186,0.0287 0.0362,0.058 0.0527,0.0879 0.0167,0.0301 0.0323,0.0607 0.0469,0.0918 0.0148,0.0314 0.0285,0.0633 0.041,0.0957 0.0122,0.0322 0.0233,0.0647 0.0332,0.0977 0.0103,0.0329 0.0194,0.0661 0.0273,0.0996 0.006,0.024 0.011,0.0481 0.0156,0.0723 10e-4,0.009 0.003,0.0182 0.004,0.0273 0.005,0.0298 0.009,0.0598 0.0117,0.0898 6.7e-4,0.005 0.001,0.009 0.002,0.0137 0.002,0.0208 0.003,0.0416 0.004,0.0625 10e-6,0.003 10e-6,0.005 0,0.008 10e-4,0.0208 0.002,0.0417 0.002,0.0625 -1.9e-4,0.0215 -8.4e-4,0.043 -0.002,0.0645 10e-6,0.003 10e-6,0.005 0,0.008 -8.6e-4,0.0209 -0.002,0.0417 -0.004,0.0625 -10e-4,0.0137 -0.002,0.0274 -0.004,0.041 -6.2e-4,0.006 -10e-4,0.0117 -0.002,0.0176 -0.004,0.0281 -0.008,0.0561 -0.0137,0.084 -0.006,0.0314 -0.012,0.0627 -0.0195,0.0937 -6.5e-4,0.002 -10e-4,0.004 -0.002,0.006 -6.5e-4,0.002 -10e-4,0.004 -0.002,0.006 -0.008,0.0315 -0.0172,0.0628 -0.0273,0.0937 -0.01,0.0283 -0.02,0.0563 -0.0312,0.084 -0.002,0.006 -0.004,0.0117 -0.006,0.0176 -9.77224,24.44881 -0.15728,38.54302 4.93554,48.7168 7.63272,10.25741 13.10907,24.59266 16.74024,36.44336 3.65203,11.91881 5.41992,21.33594 5.41992,21.33594 0.017,0.0915 0.0255,0.18431 0.0254,0.27734 v 11.37891 l 2.43945,-2.43946 c 0.76162,-0.761 2.05317,-0.49569 2.45313,0.50391 l 10,25 c 0.15879,0.39738 0.14032,0.84366 -0.0508,1.22656 -4.64223,9.28446 0,18.66016 0,18.66016 0.26309,0.52754 0.19278,1.16027 -0.17969,1.61719 14.18017,31.49322 25.22656,58.48437 25.22656,58.48437 0.62047,1.516 -1.29103,2.78729 -2.44922,1.62891 l -5,-5 c -0.13292,-0.13321 -0.23959,-0.29024 -0.31445,-0.46289 0,0 -10.81075,-24.82603 -24.8457,-54.35743 l -39.14258,-9.78515 c -0.46748,-0.1168 -0.8504,-0.45103 -1.0293,-0.89844 0,0 -2.45978,-6.14924 -6.77734,-13.55078 -4.31757,-7.40154 -10.51413,-15.99249 -17.66211,-20.75781 C 306.93376,240.4246 307.51631,238.50055 309,238.5 h 10.04688 l -10.87891,-7.25195 c -0.0232,-0.0156 -0.046,-0.0319 -0.0684,-0.0488 -5.392,-4.044 -9.50346,-11.13951 -12.83594,-19.4707 -3.33247,-8.3312 -5.8461,-17.93162 -7.73242,-27.04883 -3.77264,-18.23443 -5.02734,-34.56446 -5.02734,-34.56446 -0.0961,-1.24749 1.28722,-2.05754 2.32812,-1.36328 l 10.30078,6.86719 -7.47461,-14.94922 C 287.55425,140.46189 287.5001,140.23255 287.5,140 c 0,-8 3.9153,-14.44634 6.99023,-21.82617 3.07497,-7.37984 5.47495,-15.69948 3.03907,-27.878908 -0.003,-0.01493 -0.005,-0.02991 -0.008,-0.04492 -0.005,-0.02982 -0.009,-0.05979 -0.0117,-0.08984 -10e-4,-0.0104 -0.003,-0.02082 -0.004,-0.03125 -8.2e-4,-0.01301 -0.001,-0.02603 -0.002,-0.03906 -0.002,-0.0247 -0.003,-0.04945 -0.004,-0.07422 2.7e-4,-0.01954 9.2e-4,-0.03908 0.002,-0.05859 -6e-5,-0.0078 -6e-5,-0.01563 0,-0.02344 0.002,-0.03132 0.004,-0.06259 0.008,-0.09375 0.003,-0.034 0.008,-0.06787 0.0137,-0.101563 0.005,-0.02816 0.0109,-0.05616 0.0176,-0.08398 0.004,-0.01897 0.009,-0.03785 0.0137,-0.05664 6.5e-4,-0.002 0.001,-0.0039 0.002,-0.0059 0.009,-0.03224 0.0198,-0.06416 0.0312,-0.0957 0.01,-0.02633 0.0201,-0.05238 0.0312,-0.07813 0.01,-0.0237 0.0202,-0.04715 0.0312,-0.07031 0.006,-0.01377 0.0128,-0.02744 0.0195,-0.04102 0.004,-0.0085 0.009,-0.01697 0.0137,-0.02539 0.009,-0.01646 0.0192,-0.03274 0.0293,-0.04883 0.008,-0.01314 0.0154,-0.02616 0.0234,-0.03906 0.009,-0.01382 0.018,-0.02749 0.0273,-0.04102 0.0126,-0.01852 0.0256,-0.03675 0.0391,-0.05469 0.006,-0.0079 0.0116,-0.01568 0.0176,-0.02344 0.0133,-0.01656 0.027,-0.03284 0.041,-0.04883 0.0152,-0.01794 0.0308,-0.03553 0.0469,-0.05273 0.0102,-0.01122 0.0207,-0.02229 0.0312,-0.0332 0.008,-0.0079 0.0168,-0.01572 0.0254,-0.02344 0.0134,-0.01262 0.0271,-0.02499 0.041,-0.03711 0.0172,-0.01604 0.0348,-0.03167 0.0527,-0.04687 0.008,-0.0066 0.0169,-0.01311 0.0254,-0.01953 0.006,-0.0053 0.013,-0.01047 0.0195,-0.01563 0.0224,-0.01625 0.0451,-0.03188 0.0684,-0.04687 0.008,-0.0053 0.0156,-0.01049 0.0234,-0.01563 0.0212,-0.01356 0.0426,-0.02658 0.0645,-0.03906 0.005,-0.0026 0.009,-0.0052 0.0137,-0.0078 0.0238,-0.01302 0.0478,-0.02539 0.0723,-0.03711 0.004,-0.002 0.008,-0.0039 0.0117,-0.0059 0.008,-0.0033 0.0169,-0.0066 0.0254,-0.0098 0.0155,-0.0074 0.0311,-0.01459 0.0469,-0.02148 0.0187,-0.0075 0.0376,-0.01471 0.0566,-0.02148 0.0104,-0.004 0.0208,-0.0079 0.0312,-0.01172 0.0258,-0.0092 0.0519,-0.01764 0.0781,-0.02539 0.006,-0.0013 0.0117,-0.0026 0.0176,-0.0039 0.0239,-0.0065 0.048,-0.01232 0.0723,-0.01758 0.007,-0.0013 0.013,-0.0026 0.0195,-0.0039 0.0149,-0.0028 0.0299,-0.0054 0.0449,-0.0078 0.0298,-0.0048 0.0598,-0.0087 0.0898,-0.01172 0.0104,-0.0014 0.0208,-0.0027 0.0312,-0.0039 0.008,-7.23e-4 0.0169,-0.0014 0.0254,-0.002 0.005,-2.1e-5 0.009,-2.1e-5 0.0137,0 0.0247,-0.0019 0.0494,-0.0032 0.0742,-0.0039 0.0248,3.9e-5 0.0495,6.9e-4 0.0742,0.002 0.003,-7e-6 0.005,-7e-6 0.008,0 0.0313,0.0016 0.0626,0.0042 0.0937,0.0078 0.034,0.0034 0.0679,0.008 0.10156,0.01367 0.0282,0.0051 0.0562,0.01092 0.084,0.01758 0.006,0.0013 0.0117,0.0026 0.0176,0.0039 0.0144,0.0037 0.0287,0.0076 0.043,0.01172 h 0.002 c 0.0322,0.0093 0.0642,0.01977 0.0957,0.03125 0.0263,0.0097 0.0524,0.02011 0.0781,0.03125 0.006,0.0019 0.0117,0.0039 0.0176,0.0059 0.0177,0.0081 0.0353,0.01659 0.0527,0.02539 0.0138,0.0063 0.0275,0.01281 0.041,0.01953 0.0171,0.0088 0.034,0.0179 0.0508,0.02734 0.0131,0.0076 0.0262,0.01543 0.0391,0.02344 0.0165,0.0101 0.0328,0.02052 0.0488,0.03125 0.0125,0.0083 0.0249,0.01674 0.0371,0.02539 0.0112,0.0083 0.0222,0.01677 0.0332,0.02539 0.0165,0.01204 0.0328,0.02441 0.0488,0.03711 0.0146,0.0121 0.0289,0.02447 0.043,0.03711 0.0368,0.03275 0.072,0.0673 0.10547,0.103516 l 7.52734,7.52539 c 0.004,-0.52744 0.0679,-0.323562 0.0312,-1.039062 -0.14966,-2.918519 -0.75005,-7.320822 -2.58789,-13.140625 -3.67566,-11.639607 -12.30366,-28.956365 -32.1914,-51.330078 -0.005,-0.0065 -0.0105,-0.01298 -0.0156,-0.01953 -0.007,-0.0084 -0.0144,-0.01685 -0.0215,-0.02539 -0.009,-0.01095 -0.0171,-0.02202 -0.0254,-0.0332 -0.005,-0.0058 -0.0105,-0.01168 -0.0156,-0.01758 -0.0154,-0.02057 -0.0257,-0.03619 -0.041,-0.05664 -1.87901,-2.508615 -2.93243,-4.116248 -3.4043,-5.4375 -0.11893,-0.333006 -0.21018,-0.656571 -0.2207,-1.056641 -0.0105,-0.400069 0.0916,-0.955758 0.48828,-1.396484 0.39665,-0.440726 0.95637,-0.60158 1.35351,-0.623047 z"
       id="path4219" />
    <path
       style="display:inline;mix-blend-mode:normal;fill:#deaa87;fill-opacity:1;stroke-width:3;stroke-linecap:round;stroke-linejoin:round;stroke-miterlimit:4;stroke-dasharray:none"
       d="m 334.2216,200.02441 c 14.11475,21.76987 35.41893,63.97403 45.94052,85.9245 14.18017,31.49322 25.22656,58.48437 25.22656,58.48437 0.62047,1.516 -1.29103,2.78729 -2.44922,1.62891 l -5,-5 c -0.13292,-0.13321 -0.23959,-0.29024 -0.31445,-0.46289 0,0 -10.81075,-24.82603 -24.8457,-54.35743 -4.92287,-12.13296 -22.06514,-57.39336 -45.80685,-87.52588 2.53743,-1.73756 3.93303,-2.13885 7.24914,1.30842 z"
       id="path4219-3"
       sodipodi:nodetypes="ccccccccc" />
    <path
       id="rect4168"
       style="fill:#000000;fill-opacity:1;stroke-width:3;stroke-linecap:round;stroke-linejoin:round;stroke-miterlimit:4;stroke-dasharray:none"
       d="m 270.97656,22.326172 v 0.002 0.002 c -0.39714,0.02147 -0.95686,0.182321 -1.35351,0.623047 -0.39668,0.440726 -0.49878,0.996415 -0.48828,1.396484 0.0105,0.40007 0.10177,0.723635 0.2207,1.056641 0.47187,1.321252 1.52529,2.928885 3.4043,5.4375 0.0153,0.02045 0.0256,0.03607 0.041,0.05664 0.005,0.0059 0.0106,0.01178 0.0156,0.01758 0.008,0.01118 0.0164,0.02225 0.0254,0.0332 0.007,0.0085 0.0145,0.01699 0.0215,0.02539 0.005,0.0066 0.0106,0.01303 0.0156,0.01953 19.88774,22.373713 28.51574,39.690471 32.1914,51.330078 1.83784,5.819803 2.43823,10.222106 2.58789,13.140625 0.0367,0.7155 -0.0275,0.511622 -0.0312,1.039062 l -7.52734,-7.52539 c -0.0335,-0.03622 -0.0687,-0.07077 -0.10547,-0.103516 -0.0141,-0.01264 -0.0284,-0.02501 -0.043,-0.03711 -0.016,-0.0127 -0.0323,-0.02507 -0.0488,-0.03711 -0.011,-0.0086 -0.022,-0.01709 -0.0332,-0.02539 -0.0122,-0.0087 -0.0246,-0.01709 -0.0371,-0.02539 -0.016,-0.01073 -0.0323,-0.02115 -0.0488,-0.03125 -0.0129,-0.008 -0.026,-0.01584 -0.0391,-0.02344 -0.0168,-0.0094 -0.0337,-0.01854 -0.0508,-0.02734 -0.0135,-0.0067 -0.0272,-0.01323 -0.041,-0.01953 -0.0174,-0.0088 -0.035,-0.01729 -0.0527,-0.02539 -0.006,-0.002 -0.0116,-0.004 -0.0176,-0.0059 -0.0257,-0.01114 -0.0518,-0.02155 -0.0781,-0.03125 -0.0315,-0.01148 -0.0635,-0.02195 -0.0957,-0.03125 h -0.002 c -0.0143,-0.0041 -0.0286,-0.008 -0.043,-0.01172 -0.006,-0.0013 -0.0116,-0.0026 -0.0176,-0.0039 -0.0278,-0.0067 -0.0558,-0.01248 -0.084,-0.01758 -0.0337,-0.0057 -0.0676,-0.01027 -0.10156,-0.01367 -0.0311,-0.0036 -0.0627,-0.0062 -0.0937,-0.0078 -0.003,-7e-6 -0.005,-7e-6 -0.008,0 -0.0247,-0.0013 -0.0494,-0.0019 -0.0742,-0.002 -0.0248,7e-4 -0.0495,0.002 -0.0742,0.0039 -0.005,-2.1e-5 -0.009,-2.1e-5 -0.0137,0 -0.008,6e-4 -0.0174,0.0012 -0.0254,0.002 -0.0104,0.0012 -0.0208,0.0025 -0.0312,0.0039 -0.03,0.003 -0.06,0.0069 -0.0898,0.01172 -0.015,0.0024 -0.03,0.005 -0.0449,0.0078 -0.007,0.0013 -0.0125,0.0026 -0.0195,0.0039 -0.0243,0.0053 -0.0484,0.01108 -0.0723,0.01758 -0.006,0.0013 -0.0116,0.0026 -0.0176,0.0039 -0.0262,0.0077 -0.0523,0.01619 -0.0781,0.02539 -0.0104,0.0038 -0.0208,0.0077 -0.0312,0.01172 -0.019,0.0068 -0.0379,0.01398 -0.0566,0.02148 -0.0158,0.0069 -0.0314,0.01408 -0.0469,0.02148 -0.009,0.0032 -0.0174,0.0065 -0.0254,0.0098 -0.004,0.002 -0.008,0.0039 -0.0117,0.0059 -0.0245,0.01172 -0.0485,0.02409 -0.0723,0.03711 -0.005,0.0026 -0.009,0.0052 -0.0137,0.0078 -0.0219,0.01248 -0.0433,0.0255 -0.0645,0.03906 -0.008,0.0051 -0.0154,0.01032 -0.0234,0.01563 -0.0233,0.01499 -0.046,0.03065 -0.0684,0.04687 -0.007,0.0052 -0.0135,0.01032 -0.0195,0.01563 -0.008,0.0064 -0.0174,0.01293 -0.0254,0.01953 -0.0179,0.0152 -0.0355,0.03083 -0.0527,0.04687 -0.0139,0.01212 -0.0276,0.02449 -0.041,0.03711 -0.009,0.0077 -0.0174,0.01554 -0.0254,0.02344 -0.0105,0.01091 -0.0213,0.02198 -0.0312,0.0332 -0.0161,0.0172 -0.0317,0.03481 -0.0469,0.05273 -0.014,0.01599 -0.0277,0.03227 -0.041,0.04883 -0.006,0.0078 -0.0116,0.01554 -0.0176,0.02344 -0.0135,0.01794 -0.0265,0.03617 -0.0391,0.05469 -0.009,0.01353 -0.0183,0.0272 -0.0273,0.04102 -0.008,0.0129 -0.0154,0.02592 -0.0234,0.03906 -0.0101,0.01609 -0.0203,0.03237 -0.0293,0.04883 -0.005,0.0084 -0.01,0.01689 -0.0137,0.02539 -0.007,0.01358 -0.0135,0.02725 -0.0195,0.04102 -0.011,0.02316 -0.0215,0.04661 -0.0312,0.07031 -0.0111,0.02575 -0.0215,0.05178 -0.0312,0.07813 -0.0114,0.03154 -0.0224,0.06346 -0.0312,0.0957 -10e-4,0.002 -9e-4,0.0039 -0.002,0.0059 -0.005,0.01879 -0.01,0.03767 -0.0137,0.05664 -0.007,0.02782 -0.0126,0.05582 -0.0176,0.08398 -0.006,0.03369 -0.0107,0.06756 -0.0137,0.101563 -0.004,0.03116 -0.006,0.06243 -0.008,0.09375 -6e-5,0.0078 -6e-5,0.01564 0,0.02344 -0.001,0.01951 -0.002,0.03905 -0.002,0.05859 10e-4,0.02477 0.002,0.04952 0.004,0.07422 0.001,0.01303 9e-4,0.02605 0.002,0.03906 0.001,0.01043 0.003,0.02085 0.004,0.03125 0.003,0.03005 0.007,0.06002 0.0117,0.08984 0.003,0.01501 0.005,0.02999 0.008,0.04492 2.43588,12.179424 0.0359,20.499064 -3.03907,27.878904 C 291.41492,125.55355 287.5,132 287.5,140 c 10e-5,0.23255 0.0543,0.46186 0.1582,0.66992 l 7.47461,14.94922 -10.30078,-6.86719 c -1.0409,-0.69426 -2.42422,0.11579 -2.32812,1.36328 0,0 1.2547,16.33003 5.02734,34.56446 1.88632,9.11721 4.39995,18.71763 7.73242,27.04883 3.33248,8.33119 7.44394,15.4267 12.83594,19.4707 0.0224,0.0169 0.0452,0.0332 0.0684,0.0488 L 319.04688,238.5 H 309 c -1.48369,5.5e-4 -2.06625,1.92491 -0.83203,2.75 7.14798,4.76532 13.34454,13.35627 17.66211,20.75781 4.31756,7.40154 6.77734,13.55078 6.77734,13.55078 0.1789,0.44741 0.56182,0.78164 1.0293,0.89844 l 39.14258,9.78516 c 14.03495,29.5314 24.8457,54.35742 24.8457,54.35742 0.0749,0.17265 0.18153,0.32968 0.31445,0.46289 l 5,5 c 1.15819,1.15838 3.06969,-0.11291 2.44922,-1.62891 0,0 -11.04639,-26.99115 -25.22656,-58.48437 0.37247,-0.45692 0.44278,-1.08965 0.17969,-1.61719 0,0 -4.64223,-9.37571 0,-18.66015 0.19112,-0.38291 0.20953,-0.82919 0.0508,-1.22657 l -10,-25 c -0.39996,-0.9996 -1.69151,-1.2649 -2.45313,-0.5039 L 365.5,241.38086 v -11.37891 c 10e-5,-0.093 -0.008,-0.18584 -0.0254,-0.27734 0,0 -1.76789,-9.41713 -5.41992,-21.33594 -3.63117,-11.8507 -9.10752,-26.18595 -16.74024,-36.44336 -5.09282,-10.17378 -14.70778,-24.26798 -4.93554,-48.71679 0.002,-0.006 0.004,-0.0116 0.006,-0.0176 0.0112,-0.0277 0.0213,-0.0557 0.0312,-0.084 0.0101,-0.0309 0.0193,-0.0622 0.0273,-0.0937 10e-4,-0.002 9e-4,-0.004 0.002,-0.006 10e-4,-0.002 9.2e-4,-0.004 0.002,-0.006 0.007,-0.031 0.0135,-0.0623 0.0195,-0.0937 0.006,-0.0279 0.01,-0.0559 0.0137,-0.084 0.001,-0.006 9e-4,-0.0116 0.002,-0.0176 0.002,-0.0136 0.003,-0.0273 0.004,-0.041 0.002,-0.0208 0.003,-0.0416 0.004,-0.0625 1e-5,-0.003 1e-5,-0.005 0,-0.008 0.001,-0.0215 0.002,-0.0429 0.002,-0.0644 0,-0.0208 -8.8e-4,-0.0417 -0.002,-0.0625 1e-5,-0.003 1e-5,-0.007 0,-0.01 -10e-4,-0.0209 -0.002,-0.0417 -0.004,-0.0625 -0.001,-0.005 -9e-4,-0.009 -0.002,-0.0137 -0.003,-0.03 -0.007,-0.0581 -0.0117,-0.0879 -10e-4,-0.009 -0.003,-0.0183 -0.004,-0.0273 -0.005,-0.0242 -0.01,-0.0483 -0.0156,-0.0723 -0.008,-0.0335 -0.017,-0.0667 -0.0273,-0.0996 -0.01,-0.033 -0.021,-0.0674 -0.0332,-0.0996 -0.0125,-0.0324 -0.0262,-0.0643 -0.041,-0.0957 -0.0146,-0.0311 -0.0302,-0.0617 -0.0469,-0.0918 -0.0165,-0.0299 -0.0341,-0.0592 -0.0527,-0.0879 -0.0186,-0.0287 -0.0381,-0.0567 -0.0586,-0.084 -0.0205,-0.0274 -0.042,-0.0542 -0.0644,-0.0801 -0.006,-0.007 -0.0116,-0.0145 -0.0176,-0.0215 -0.0165,-0.0187 -0.0334,-0.0369 -0.0508,-0.0547 -0.0482,-0.049 -0.0998,-0.0947 -0.1543,-0.13672 -0.0242,-0.019 -0.0489,-0.0372 -0.0742,-0.0547 -0.003,-0.002 -0.007,-0.004 -0.01,-0.006 -0.008,-0.005 -0.0154,-0.0106 -0.0234,-0.0156 -0.0212,-0.0129 -0.0427,-0.0253 -0.0645,-0.0371 -0.008,-0.005 -0.0154,-0.01 -0.0234,-0.0137 -0.0225,-0.0123 -0.0453,-0.0241 -0.0684,-0.0352 -0.001,-10e-4 -0.003,-9e-4 -0.004,-0.002 -0.0232,-0.0104 -0.0466,-0.0203 -0.0703,-0.0293 -0.006,-0.004 -0.0125,-0.009 -0.0195,-0.0117 -0.008,-0.004 -0.0174,-0.009 -0.0254,-0.0117 -0.005,-0.002 -0.0106,-0.004 -0.0156,-0.006 -0.0258,-0.009 -0.0518,-0.0174 -0.0781,-0.0254 -0.001,-0.001 -0.003,-9.1e-4 -0.004,-0.002 -0.024,-0.007 -0.0481,-0.0135 -0.0723,-0.0195 -0.0336,-0.008 -0.0675,-0.0155 -0.10157,-0.0215 -0.0233,-0.005 -0.0468,-0.009 -0.0703,-0.0117 -0.0195,-0.002 -0.039,-0.004 -0.0586,-0.006 -0.0344,-0.003 -0.0689,-0.005 -0.10352,-0.006 -0.0247,-6.1e-4 -0.0495,-6.1e-4 -0.0742,0 -0.01,0.001 -0.0193,9e-4 -0.0293,0.002 -0.0261,10e-4 -0.0521,0.003 -0.0781,0.006 -0.0287,0.003 -0.0574,0.007 -0.0859,0.0117 -0.009,0.001 -0.0183,0.003 -0.0273,0.004 l -7.44727,1.3457 c 7.14011,-6.71286 10.31717,-13.97107 10.59571,-21.21289 0.33021,-8.585484 -3.27366,-16.988618 -8.375,-24.640628 -5.10134,-7.652009 -11.73691,-14.592651 -17.7168,-20.257812 -5.97989,-5.66516 -11.35329,-10.103285 -13.7207,-12.470703 -0.0234,-0.02358 -0.0475,-0.04638 -0.0723,-0.06836 0,0 -10.00939,-8.760682 -18.19922,-15.060547 -2.04745,-1.574966 -3.98079,-2.996312 -5.63867,-4.101563 -1.65788,-1.105251 -2.94072,-1.89573 -4.16016,-2.24414 -0.30485,-0.08711 -0.61652,-0.156236 -1.01367,-0.134766 z m 2.72266,4.439453 c 0.33581,0.204903 0.41634,0.192272 0.78711,0.439453 1.56478,1.043187 3.45956,2.434341 5.47461,3.984375 8.06017,6.200135 18.05078,14.939453 18.05078,14.939453 2.6516,2.637782 7.85583,6.917701 13.70703,12.460938 5.89511,5.584839 12.38454,12.394196 17.2832,19.742187 4.89866,7.347991 8.16979,15.194855 7.875,22.859379 -0.29471,7.66271 -4.03649,15.30004 -13.77148,22.60351 l -0.008,0.006 c -0.024,0.0181 -0.0455,0.037 -0.0684,0.0566 -0.0262,0.0219 -0.0535,0.0447 -0.0781,0.0684 -0.0243,0.0239 -0.0477,0.0487 -0.0703,0.0742 -0.0231,0.0259 -0.0433,0.0526 -0.0644,0.0801 -0.0212,0.0266 -0.0433,0.054 -0.0625,0.082 -0.0192,0.0287 -0.0375,0.058 -0.0547,0.0879 -0.0173,0.03 -0.0336,0.0606 -0.0488,0.0918 -0.0147,0.0307 -0.0284,0.062 -0.041,0.0937 -0.026,0.0635 -0.0475,0.12881 -0.0645,0.19531 -0.008,0.0329 -0.0155,0.0662 -0.0215,0.0996 -0.007,0.0337 -0.0116,0.0676 -0.0156,0.10156 v 0.004 c -0.004,0.0318 -0.006,0.0637 -0.008,0.0957 v 0.006 c -10e-4,0.0339 -10e-4,0.0678 0,0.10156 0.001,0.0345 0.003,0.0691 0.006,0.10352 0.003,0.0307 0.008,0.0613 0.0117,0.0918 10e-4,0.005 0.003,0.0106 0.004,0.0156 0.001,0.006 9.2e-4,0.0116 0.002,0.0176 0.0114,0.0594 0.0264,0.11818 0.0449,0.17578 0.01,0.033 0.021,0.0655 0.0332,0.0977 0.0249,0.0644 0.0543,0.1271 0.0879,0.1875 0.0165,0.0299 0.0341,0.0592 0.0527,0.0879 0.0186,0.0287 0.0381,0.0567 0.0586,0.084 0.0169,0.0226 0.0345,0.0448 0.0527,0.0664 l 0.008,0.008 c 0.0189,0.0227 0.0384,0.0448 0.0586,0.0664 l 0.008,0.008 c 0.0234,0.0236 0.0475,0.0464 0.0723,0.0684 0.0259,0.0231 0.0527,0.0452 0.0801,0.0664 0.0266,0.0212 0.054,0.0414 0.082,0.0606 0.0287,0.0193 0.058,0.0375 0.0879,0.0547 0.03,0.0173 0.0606,0.0336 0.0918,0.0488 0.0307,0.0147 0.062,0.0284 0.0937,0.041 0.0636,0.0259 0.12881,0.0477 0.19531,0.0644 0.0329,0.008 0.0662,0.0155 0.0996,0.0215 0.0337,0.007 0.0676,0.0116 0.10156,0.0156 h 0.004 c 0.0318,0.004 0.0637,0.006 0.0957,0.008 h 0.006 c 0.0339,0.001 0.0678,0.001 0.10156,0 0.0345,-10e-4 0.0691,-0.003 0.10352,-0.006 0.0307,-0.003 0.0613,-0.006 0.0918,-0.01 0.003,-0.001 0.007,-9e-4 0.01,-0.002 0.008,-0.001 0.0154,-0.003 0.0234,-0.004 L 334.65689,124.6 c -8.57692,24.0537 1.24637,39.22711 5.99414,48.72266 0.0405,0.081 0.0882,0.15806 0.14258,0.23046 7.29837,9.73117 12.79268,23.95787 16.39453,35.71289 3.56724,11.64207 5.2794,20.71896 5.3125,20.89454 V 245 c 5.2e-4,1.33596 1.61556,2.00489 2.56055,1.06055 l 3.39257,-3.39258 8.93946,22.35156 c -1.66041,3.62613 -2.12637,7.20511 -2.04297,10.34961 -13.43584,-29.30127 -28.70518,-60.24703 -40.12891,-76.24023 -0.48121,-0.67399 -1.41757,-0.83049 -2.09179,-0.34961 -0.67399,0.48121 -0.83049,1.41757 -0.34961,2.09179 12.31541,17.24159 29.86586,53.52347 44.22851,85.3711 6.29714,13.96322 11.53644,26.14656 15.94922,36.48242 -4.46,-9.92442 -10.39473,-22.89299 -17.45703,-37.74609 l -0.53711,-1.12696 c -0.91735,-1.9259 -1.77968,-3.76212 -2.73633,-5.75195 -15.63931,-32.52978 -34.28561,-68.71422 -47.07422,-84.06055 -0.29077,-0.34865 -0.72381,-0.54706 -1.17773,-0.53906 -0.34239,0.006 -0.67253,0.12838 -0.93555,0.34766 -0.63665,0.53059 -0.72236,1.47694 -0.1914,2.11328 12.21139,14.65367 31.06509,50.96923 46.67578,83.43945 0.54376,1.13102 1.05014,2.2092 1.58594,3.33008 l -36.03516,-9.00781 c -0.40038,-0.97688 -2.609,-6.29372 -6.6543,-13.22852 -3.7612,-6.44777 -8.9404,-13.70484 -15.19922,-18.99414 H 324 c 1.48369,-5.5e-4 2.06624,-1.9246 0.83203,-2.74805 l -14.94336,-9.96289 c -4.60278,-3.45864 -8.61273,-10.10603 -11.83984,-18.17383 -3.23003,-8.07505 -5.7164,-17.53713 -7.58008,-26.54492 -3.16223,-15.28412 -4.29795,-27.17016 -4.64258,-31.05078 l 12.3418,8.22852 c 1.27926,0.85143 2.85927,-0.54261 2.17383,-1.91797 l -9.8086,-19.61524 c 0.0978,-6.87684 3.59577,-12.87475 6.72657,-20.38867 2.78072,-6.67376 5.11978,-14.54527 3.93554,-25.009764 l 6.74414,6.744144 c 0.84693,0.84647 2.29544,0.40833 2.53125,-0.76563 0,0 0.34643,-1.805236 0.1836,-4.980467 -0.16284,-3.175231 -0.81245,-7.835428 -2.72461,-13.890625 -3.82076,-12.099059 -12.68149,-29.761556 -32.75391,-52.357422 -0.88736,-1.187461 -0.98384,-1.515808 -1.47656,-2.300781 z" />
  </g>
  <g
     id="g1240">
    <g
       id="g1183"
       style="stroke-width:3;stroke-miterlimit:4;stroke-dasharray:none">
      <g
         id="g1298" />
    </g>
  </g>
</svg>
