<?xml version="1.0" encoding="UTF-8" standalone="no"?>
<svg
   xmlns:dc="http://purl.org/dc/elements/1.1/"
   xmlns:cc="http://creativecommons.org/ns#"
   xmlns:rdf="http://www.w3.org/1999/02/22-rdf-syntax-ns#"
   xmlns:svg="http://www.w3.org/2000/svg"
   xmlns="http://www.w3.org/2000/svg"
   xmlns:sodipodi="http://sodipodi.sourceforge.net/DTD/sodipodi-0.dtd"
   xmlns:inkscape="http://www.inkscape.org/namespaces/inkscape"
   width="512"
   height="512"
   viewBox="0 0 512 512"
   version="1.1"
   id="svg8"
   inkscape:version="1.0.2 (e86c870879, 2021-01-15)"
   sodipodi:docname="logo_x512_simple.svg">
  <defs
     id="defs2">
    <marker
       style="overflow:visible"
       id="Arrow1Lstart"
       refX="0.0"
       refY="0.0"
       orient="auto"
       inkscape:stockid="Arrow1Lstart"
       inkscape:isstock="true">
      <path
         transform="scale(0.8) translate(12.5,0)"
         style="fill-rule:evenodd;stroke:#000000;stroke-width:1.0pt"
         d="M 0.0,0.0 L 5.0,-5.0 L -12.5,0.0 L 5.0,5.0 L 0.0,0.0 z "
         id="path1749" />
    </marker>
  </defs>
  <sodipodi:namedview
     id="base"
     pagecolor="#ffffff"
     bordercolor="#666666"
     borderopacity="1.0"
     inkscape:pageopacity="0.0"
     inkscape:pageshadow="2"
     inkscape:zoom="0.56275502"
     inkscape:cx="276.55766"
     inkscape:cy="251.31934"
     inkscape:document-units="px"
     inkscape:current-layer="svg8"
     inkscape:document-rotation="0"
     showgrid="true"
     units="px"
     scale-x="1"
     inkscape:pagecheckerboard="false"
     objecttolerance="10"
     gridtolerance="10000"
     inkscape:window-width="1600"
     inkscape:window-height="820"
     inkscape:window-x="0"
     inkscape:window-y="44"
     inkscape:window-maximized="1"
     showguides="true"
     inkscape:lockguides="false"
     inkscape:guide-bbox="true" />
  <metadata
     id="metadata5">
    <rdf:RDF>
      <cc:Work
         rdf:about="">
        <dc:format>image/svg+xml</dc:format>
        <dc:type
           rdf:resource="http://purl.org/dc/dcmitype/StillImage" />
        <dc:title></dc:title>
      </cc:Work>
    </rdf:RDF>
  </metadata>
  <g
     inkscape:groupmode="layer"
     id="g1083"
     inkscape:label="Umrandung_Stroke"
     style="display:none"
     sodipodi:insensitive="true">
    <g
       id="g1081"
       style="stroke:#000000;stroke-width:15;stroke-linecap:round;stroke-linejoin:round;stroke-miterlimit:4;stroke-dasharray:none;stroke-opacity:1;paint-order:normal">
      <path
         style="fill:none;stroke:#000000;stroke-width:15;stroke-linecap:round;stroke-linejoin:round;stroke-miterlimit:4;stroke-dasharray:none;stroke-opacity:1;paint-order:normal"
         d="m 280,24 60,72 -8,56 20,28 28,84 -4,16 28,64 -32,-60 -36,-8 -32,-36 -24,-80 24,-68 z m 16,88 -24,4 -36,24 -24,72 -4,12"
         id="path1065"
         sodipodi:nodetypes="ccccccccccccccccc" />
      <path
         style="fill:none;stroke:#000000;stroke-width:15;stroke-linecap:round;stroke-linejoin:round;stroke-miterlimit:4;stroke-dasharray:none;stroke-opacity:1;paint-order:normal"
         d="m 168,224 24,-84 36,-24 -88,-20 12,40 -48,40 -24,-72 52,-44 108,20 20,4 36,-8"
         id="path1067"
         sodipodi:nodetypes="ccccccccccc" />
      <path
         style="fill:none;stroke:#000000;stroke-width:15;stroke-linecap:round;stroke-linejoin:round;stroke-miterlimit:4;stroke-dasharray:none;stroke-opacity:1;paint-order:normal"
         d="M 320,68 392,36 V 204"
         id="path1069"
         sodipodi:nodetypes="ccc" />
      <path
         style="fill:none;stroke:#000000;stroke-width:15;stroke-linecap:round;stroke-linejoin:round;stroke-miterlimit:4;stroke-dasharray:none;stroke-opacity:1;paint-order:normal"
         d="m 292,248 h -80 l -4,-24 c 0,-20 -20,-20 -20,-20 v 0 c 0,0 -20,0 -20,20 l -8,36 H 80 L 44,248 28,264 v 32 l 16,16 36,-12 h 80 l 8,36 c 0,20 20,20 20,20 v 0 c 0,0 20,0 20,-20 l 4,-24 h 80"
         id="path1071"
         sodipodi:nodetypes="cccccccccccccccccccc" />
      <path
         style="fill:none;stroke:#000000;stroke-width:15;stroke-linecap:round;stroke-linejoin:round;stroke-miterlimit:4;stroke-dasharray:none;stroke-opacity:1;paint-order:normal"
         d="m 364,216 56,-16 -20,48 40,72 -20,48 -120,36 v 0 l 20,-48 -40,-72 20,-48"
         id="path1073"
         sodipodi:nodetypes="cccccccccc" />
      <path
         style="fill:none;stroke:#000000;stroke-width:15;stroke-linecap:round;stroke-linejoin:round;stroke-miterlimit:4;stroke-dasharray:none;stroke-opacity:1;paint-order:normal"
         d="m 140,300 -16,48 -8,24 -48,64 h 36 l 92,48 68,-80 -64,12 -40,-20 -4,-12 v 0 l 12,-36"
         id="path1075"
         sodipodi:nodetypes="cccccccccccc" />
      <path
         style="fill:none;stroke:#000000;stroke-width:15;stroke-linecap:round;stroke-linejoin:round;stroke-miterlimit:4;stroke-dasharray:none;stroke-opacity:1;paint-order:normal"
         d="m 324,400 v 24 l 92,64 44,-104 -52,24 -16,-20 v -8"
         id="path1077"
         sodipodi:nodetypes="cc" />
      <path
         style="fill:none;stroke:#000000;stroke-width:15;stroke-linecap:round;stroke-linejoin:round;stroke-miterlimit:4;stroke-dasharray:none;stroke-opacity:1;paint-order:normal"
         d="m 432,300 48,-20 -76,-32"
         id="path1079" />
    </g>
  </g>
  <g
     inkscape:groupmode="layer"
     id="g951"
     inkscape:label="Test_bg_Dunkel"
     style="display:none"
     sodipodi:insensitive="true">
    <rect
       style="fill:#241f1c;stroke:none;stroke-width:0;stroke-linecap:round;stroke-linejoin:round;stroke-miterlimit:4;stroke-dasharray:none;stroke-opacity:1;paint-order:normal"
       id="rect931"
       width="512"
       height="512"
       x="0"
       y="0" />
    <g
       id="g949"
       style="stroke:#fffffc;stroke-width:15;stroke-linecap:round;stroke-linejoin:round;stroke-miterlimit:4;stroke-dasharray:none;stroke-opacity:1;paint-order:normal" />
  </g>
  <g
     inkscape:label="Letter_A"
     inkscape:groupmode="layer"
     id="layer1"
     style="display:none"
     sodipodi:insensitive="true">
    <path
       id="path1361"
       style="fill:#aa0000;fill-opacity:1;stroke-width:3;stroke-linecap:round;stroke-linejoin:round;stroke-miterlimit:4;stroke-dasharray:none"
       d="M 393.76665,36.042384 C 357.34061,54.474335 324.94963,70.450158 301.3659,75.359393 281.42619,80.344323 231.21287,93.769968 137.3437,60.569935 l -18.58179,-5.379204 c -0.55451,14.38828 -6.16435,26.504345 -14.12626,34.466255 -7.859716,7.8597 -18.16326,12.451834 -25.66575,15.143714 l 25.06669,69.25732 c 7.41254,-13.56772 16.71373,-23.26201 25.64153,-29.21388 8.52362,-5.68241 17.10129,-8.54577 23.86687,-10.30969 L 139.98301,95.552804 c 27.28498,8.975746 40.62315,14.090676 87.36296,19.983876 L 188.592,144.7271 150.14636,265.66243 c -11.51588,-0.76199 -29.86051,-0.26039 -39.62851,-0.26039 l 19.04316,29.54798 c 1.61942,-0.095 4.04032,1.05573 10.04837,0.37931 -9.26738,24.55183 -17.88995,51.49389 -25.66343,74.18262 -7.05232,16.94118 -16.263491,31.81468 -26.316811,44.38134 -5.84686,7.30857 -12.819059,14.63548 -16.852949,19.83511 9.362151,-0.1282 11.163733,-6.00082 21.283673,-2.6897 27.418467,15.42215 62.685267,30.77397 88.293657,44.80797 4.90658,2.72588 10.50631,6.25457 13.69136,8.88842 9.98931,-23.92695 22.75298,-34.62702 34.99534,-43.19669 11.6994,-8.18957 29.11998,-22.18748 33.53515,-35.18456 -23.54281,7.76029 -38.26963,14.30301 -49.66522,14.26783 -19.89162,-8.54969 -38.59998,-17.25921 -53.35194,-24.63687 -2.01596,-4.47807 -2.26426,-3.40606 -1.82379,-10.19139 6.8592,-31.4652 18.65684,-59.55273 26.77169,-90.77314 51.28115,1.14153 94.32151,-0.0819 140.27081,-0.0819 0.34819,29.72148 0.32533,74.7836 0.32533,105.49873 l -0.2399,24.99651 c 21.22855,25.03502 38.59848,35.55902 79.66287,55.11633 l 14.76844,4.58921 c 5.07889,-29.09999 13.40051,-48.00314 21.40592,-61.55076 7.33428,-12.41186 16.13919,-23.23244 18.19752,-37.81986 -8.28175,6.22711 -18.70237,14.98419 -31.98105,20.60697 -11.1045,4.70212 -16.73661,4.53842 -23.45543,0.27455 -6.71881,-4.26386 -9.1482,-10.90864 -9.31058,-28.02361 l 0.15165,-174.09376 z m -68.99759,69.242526 c -0.44801,24.9347 0.53481,143.91512 0.56409,159.67194 l -130.75928,-0.45259 c 13.25545,-39.49444 27.5375,-83.29194 38.70218,-124.10946 9.64464,-8.83258 20.55055,-17.183 30.70632,-25.64614 17.75878,-0.52639 40.59532,-4.19393 60.78669,-9.46375 z"
       sodipodi:nodetypes="ccccsccscccccccccsccccsccccccccccscssscccccccc" />
    <path
       id="rect1324"
       style="fill:#000000;stroke-width:2.56571;stroke-linecap:round;stroke-linejoin:round;stroke-miterlimit:4;stroke-dasharray:none"
       d="m 393.98633,33.5 a 1.50015,1.50015 0 0 0 -0.78125,0.228516 c 0,0 -39.8602,24.898275 -89.62696,39.830078 -0.003,0.001 -0.006,0.0029 -0.01,0.0039 -20.10254,5.02807 -74.44428,19.883603 -169.04883,-14.970703 a 1.50015,1.50015 0 0 0 -0.0449,-0.01563 l -15,-5 A 1.50015,1.50015 0 0 0 117.5,55 c 0,14.583333 -6.02812,25.407024 -13.93555,33.314453 -7.907417,7.907429 -17.728796,12.824967 -25.039059,15.261717 a 1.50015,1.50015 0 0 0 -0.9375,1.92774 l 24.999999,70 a 1.50015,1.50015 0 0 0 2.75391,0.16601 c 7.38074,-14.76148 17.19504,-24.55841 26.36523,-30.67187 C 140.87722,138.88459 149.5,136.5 154,136.5 a 1.50015,1.50015 0 0 0 1.4043,-2.02734 L 141.47461,97.326172 c 40.12899,13.165048 67.63607,18.198878 83.41797,18.878908 l -36.79297,27.5957 a 1.50015,1.50015 0 0 0 -0.52539,0.73633 L 148.91016,263.5 H 110 a 1.50015,1.50015 0 0 0 -1.24805,2.33203 l 20,30 A 1.50015,1.50015 0 0 0 130,296.5 h 7.875 l -15.28906,42.99805 a 1.50015,1.50015 0 0 0 -0.01,0.0273 l -5,15 -5,15 c -4.88932,14.66796 -16.051373,30.85377 -25.998045,43.28711 -9.946672,12.43334 -18.638672,21.12695 -18.638672,21.12695 a 1.50015,1.50015 0 0 0 1.730469,2.40235 c 0,0 9.631746,-4.71237 19.039062,-4.81055 l 79.621096,39.81055 c 0,0 4.97439,2.48707 10.5664,5.59375 5.59202,3.10667 11.89653,6.97855 14.04297,9.125 a 1.50015,1.50015 0 0 0 2.45313,-0.50391 c 9.89114,-24.72786 22.02178,-34.36661 34.4668,-43.07812 12.445,-8.71152 25.32589,-16.49555 35.48242,-36.8086 a 1.50015,1.50015 0 0 0 -1.95118,-2.04101 c -22.4199,9.96441 -36.06338,13.66855 -43.99414,14.88867 -3.96537,0.61006 -6.49977,0.59879 -7.98828,0.45703 -0.74425,-0.0709 -1.22804,-0.17259 -1.5,-0.24609 -0.27195,-0.0735 -0.23828,-0.0703 -0.23828,-0.0703 l -49.64453,-24.82226 c -0.53081,-0.62126 -1.07696,-3.02141 -0.85742,-6.31446 0.22496,-3.37434 0.99057,-7.53988 1.91797,-11.55859 1.85479,-8.03741 4.33789,-15.48828 4.33789,-15.48828 a 1.50015,1.50015 0 0 0 0.004,-0.0137 L 186.0918,296.5 H 323.5 V 400 425 a 1.50015,1.50015 0 0 0 0.33984,0.95117 c 21.57972,26.33951 49.12212,41.95082 79.55274,55.41992 a 1.50015,1.50015 0 0 0 0.13281,0.0527 l 15,5 a 1.50015,1.50015 0 0 0 1.95508,-1.17774 c 4.9689,-29.81338 13.60417,-47.05625 21.68555,-60.73242 8.08137,-13.67617 15.75224,-23.89435 18.31445,-39.26758 a 1.50015,1.50015 0 0 0 -2.49805,-1.34765 c 0,0 -16.20886,14.8781 -32.04492,21.27344 -7.91803,3.19763 -15.50788,4.18144 -20.97656,0.71093 C 399.49225,402.41234 395.5,394.13426 395.5,377.5 V 204.70898 35 a 1.50015,1.50015 0 0 0 -1.51367,-1.5 z M 392.5,37.623047 V 204.70898 377.5 c 0,17.11574 4.13275,26.6502 10.85156,30.91406 6.71882,4.26387 15.37897,2.90391 23.71094,-0.46094 12.15066,-4.90699 23.94599,-14.17376 29.5293,-18.88867 -3.0482,12.32757 -9.67354,21.51002 -17.00782,33.92188 -8.00541,13.54762 -16.65548,30.94884 -21.73437,60.04883 l -13.30078,-4.4336 C 374.47087,465.28407 347.59216,449.99306 326.5,424.42969 V 400 295 A 1.50015,1.50015 0 0 0 325,293.5 H 185 a 1.50015,1.50015 0 0 0 -1.42773,1.03906 l -21,65 c -0.007,0.0213 -2.51567,7.54707 -4.40821,15.74805 -0.9476,4.10629 -1.74449,8.37825 -1.98828,12.03516 -0.24379,3.6569 -0.19343,6.78117 1.76367,8.73828 a 1.50015,1.50015 0 0 0 0.39063,0.28125 l 50,25 a 1.5,1.5 0 0 0 0.34375,0.12109 c 0.1443,0.0576 0.1968,0.0909 0.45312,0.16016 0.4507,0.12181 1.09972,0.25447 1.9961,0.33984 1.79274,0.17074 4.57084,0.15947 8.73047,-0.48047 7.77461,-1.19609 20.68913,-4.80158 40.73632,-13.43164 -9.45384,16.8223 -20.74982,23.78113 -32.44922,31.9707 -12.24236,8.56967 -24.76459,18.74102 -34.7539,42.66797 -3.18505,-2.63385 -8.12662,-5.64912 -13.0332,-8.375 -5.65799,-3.14332 -10.6836,-5.65625 -10.6836,-5.65625 l -79.999998,-40 A 1.50015,1.50015 0 0 0 89,428.5 c -5.222024,0 -10.354585,1.27787 -14.203125,2.56055 3.516531,-3.77234 8.278145,-9.06448 14.125,-16.37305 10.053328,-12.56666 21.391275,-28.88085 26.501955,-44.21289 l 5,-15 4.99414,-14.98633 15.99609,-44.98633 A 1.50015,1.50015 0 0 0 140,293.5 h -9.19727 l -18,-27 H 150 a 1.50015,1.50015 0 0 0 1.42578,-1.03711 l 38.85352,-119.54687 39.62109,-29.7168 A 1.50015,1.50015 0 0 0 229,113.5 c -14.66667,0 -44.62026,-4.95545 -89.52539,-19.923828 a 1.50015,1.50015 0 0 0 -1.87891,1.951172 l 14.32422,38.197266 c -5.52728,0.52562 -13.35333,3.09493 -21.87695,8.77734 -8.9278,5.95187 -18.2984,15.40103 -25.71094,28.96875 L 80.902344,105.86719 c 7.502481,-2.69188 16.923491,-7.57194 24.783206,-15.431643 7.96191,-7.961913 14.15252,-19.000385 14.70703,-33.388672 l 13.13281,4.376953 c 95.27849,35.091118 150.89818,20.016178 170.83789,15.03125 a 1.50015,1.50015 0 0 0 0.0684,-0.01758 C 350.5769,62.593913 386.68746,41.158356 392.5,37.623047 Z M 324.98633,103.5 a 1.50015,1.50015 0 0 0 -0.36524,0.0488 c -30.20954,7.88122 -39.64341,8.6356 -60.71484,9.95508 a 1.50015,1.50015 0 0 0 -0.86719,0.34375 l -30,25 a 1.50015,1.50015 0 0 0 -0.4707,0.70507 l -39,125 A 1.50015,1.50015 0 0 0 195,266.5 h 130 a 1.50015,1.50015 0 0 0 1.5,-1.5 V 105 a 1.50015,1.50015 0 0 0 -1.51367,-1.5 z M 323.5,106.9082 V 263.5 H 197.03906 l 38.26172,-122.63086 29.29102,-24.4082 c 20.20547,-1.26903 30.53327,-2.23301 58.9082,-9.55274 z" />
  </g>
  <g
     inkscape:groupmode="layer"
     id="layer2"
     inkscape:label="Flächen_Bunt"
     style="display:inline"
     sodipodi:insensitive="true">
    <path
       id="path958"
       style="fill:#aa0000;fill-opacity:1;stroke:#ffffff;stroke-width:0;stroke-linecap:round;stroke-linejoin:round"
       sodipodi:type="inkscape:offset"
       inkscape:radius="5.1381912"
       inkscape:original="M 387 383.12109 L 329 400.51953 L 329 421.38672 C 357.26563 441.04948 385.53125 460.71224 413.79688 480.375 L 450.35938 393.95703 C 436.63209 400.22693 422.99153 406.71898 409.21094 412.85156 C 406.19832 413.73629 403.82293 411.21499 402.34766 408.9375 C 397.43525 402.656 392.23252 396.5718 387.49609 390.16992 C 386.54125 387.9801 387.19148 385.43571 387 383.12109 z "
       d="m 387.02148,377.98242 a 5.138705,5.138705 0 0 0 -1.49804,0.2168 l -58,17.39844 a 5.138705,5.138705 0 0 0 -3.66211,4.92187 v 20.86719 a 5.138705,5.138705 0 0 0 2.20508,4.21875 c 28.26563,19.66276 56.53124,39.32552 84.79687,58.98828 a 5.138705,5.138705 0 0 0 7.66602,-2.2168 l 36.5625,-86.41797 a 5.138705,5.138705 0 0 0 -6.86719,-6.67578 c -13.47139,6.15302 -26.79924,12.47658 -40.19336,18.45508 -0.31548,-0.25265 -0.8853,-0.84379 -1.37109,-1.59375 a 5.138705,5.138705 0 0 0 -0.26563,-0.37305 c -4.81062,-6.15134 -9.73743,-11.97872 -14.19336,-17.93359 -0.004,-0.23294 0.20047,-1.74942 -0.0801,-5.14062 a 5.138705,5.138705 0 0 0 -5.09961,-4.71485 z" />
    <path
       id="path956"
       style="fill:#aa0000;fill-opacity:1;stroke:#ffffff;stroke-width:0;stroke-linecap:round;stroke-linejoin:round"
       sodipodi:type="inkscape:offset"
       inkscape:radius="5.7553082"
       inkscape:original="M 143.60547 305 C 135.7866 328.18413 128.28441 351.50154 120.26953 374.60352 C 106.21701 393.42877 92.083553 412.19657 78 431 C 87.150872 431.16865 96.36981 430.67494 105.48242 431.22461 C 135.31346 446.57505 164.99969 462.24681 194.77539 477.7207 C 213.5332 455.65234 232.29102 433.58399 251.04883 411.51562 C 233.96063 414.63119 216.91048 418.09134 199.79883 420.99609 C 195.02773 419.84812 190.92129 416.66494 186.39258 414.78711 C 176.52222 409.71413 166.39573 405.05725 156.67773 399.73633 C 153.93166 396.43362 153.75716 391.68689 152.00781 387.83984 C 149.37722 383.22306 153.02863 378.56576 154.03906 374.06836 C 157.41986 364.44368 160.20872 354.55249 163.9375 345.08398 C 163.8717 341.28372 162.98006 336.60491 162.10156 332.50781 L 155.98828 305 L 143.60547 305 z "
       d="m 143.60547,299.24414 a 5.7558837,5.7558837 0 0 0 -5.45313,3.91602 c -7.74341,22.9604 -15.16429,45.98023 -23.04492,68.73437 -13.86216,18.56602 -27.808822,37.0879 -41.714842,55.6543 a 5.7558837,5.7558837 0 0 0 4.501953,9.20508 c 9.032712,0.16647 17.775293,-0.22775 26.121089,0.19531 29.4031,15.14032 58.69701,30.59586 88.10547,45.8789 a 5.7558837,5.7558837 0 0 0 7.03907,-1.38085 c 18.75781,-22.06836 37.51562,-44.13671 56.27343,-66.20508 a 5.7558837,5.7558837 0 0 0 -5.41797,-9.38867 c -16.65831,3.03719 -33.18148,6.35835 -49.67382,9.18945 -3.01977,-0.98064 -6.63824,-3.4551 -11.74414,-5.57227 l 0.42578,0.19727 c -9.53177,-4.89896 -19.08679,-9.35851 -28.16016,-14.24805 -0.90072,-1.59846 -1.39319,-5.07203 -3.61719,-9.96289 a 5.7558837,5.7558837 0 0 0 -0.23828,-0.4668 c -0.33613,-0.58991 -0.3539,-0.74936 0.15039,-2.38476 0.50429,-1.63541 1.759,-3.99459 2.4961,-7.27539 l -0.18555,0.64648 c 3.46143,-9.85421 6.23766,-19.67583 9.82422,-28.7832 a 5.7558837,5.7558837 0 0 0 0.39844,-2.20898 c -0.08,-4.61834 -1.06345,-9.48881 -1.96289,-13.6836 a 5.7558837,5.7558837 0 0 0 -0.008,-0.041 l -6.11328,-27.50782 a 5.7558837,5.7558837 0 0 0 -5.61914,-4.50781 z" />
    <path
       id="path954"
       style="fill:#6c5d53;fill-opacity:1;stroke:#ffffff;stroke-width:0;stroke-linecap:round;stroke-linejoin:round"
       sodipodi:type="inkscape:offset"
       inkscape:radius="5.4418321"
       inkscape:original="M 410.17969 256.02539 C 417.34505 268.92318 424.51042 281.82096 431.67578 294.71875 C 443.47005 289.80404 455.26432 284.88932 467.05859 279.97461 C 448.09896 271.99154 429.13932 264.00846 410.17969 256.02539 z "
       d="m 410.18945,250.58398 a 5.4423762,5.4423762 0 0 0 -4.76757,8.08399 c 7.16536,12.89779 14.33073,25.79557 21.49609,38.69336 a 5.4423762,5.4423762 0 0 0 6.85156,2.38086 c 11.79427,-4.91471 23.58855,-9.82943 35.38281,-14.74414 a 5.4423762,5.4423762 0 0 0 0.0176,-10.03907 c -18.95963,-7.98307 -37.91927,-15.96614 -56.8789,-23.94921 a 5.4423762,5.4423762 0 0 0 -2.10157,-0.42579 z" />
    <path
       id="path952"
       style="fill:#6c5d53;fill-opacity:1;stroke:#ffffff;stroke-width:0;stroke-linecap:round;stroke-linejoin:round"
       sodipodi:type="inkscape:offset"
       inkscape:radius="5.3784294"
       inkscape:original="M 188 209 C 181.93817 209.18071 174.9955 212.2718 174.625 219.01367 C 170.44821 233.30744 168.27549 248.15498 164.33984 262.48242 C 161.54467 266.88679 155.47698 264.31631 151.25781 265 C 127.07704 264.88247 102.85493 265.23255 78.699219 264.82812 C 67.577589 261.14225 56.46688 257.42049 45.349609 253.7207 C 41.369147 258.08789 36.29395 262.00079 33 266.65234 L 33 293.92969 C 37.116536 298.04623 41.233073 302.16276 45.349609 306.2793 C 56.921451 302.62056 68.334962 298.23084 80 295 C 107.09511 295.1173 134.23089 294.76659 161.30078 295.17188 C 166.38545 296.7887 165.19409 303.45186 166.77734 307.45117 C 168.80414 316.97446 171.17257 326.44734 173 336 C 171.56913 347.18207 185.02326 354.01945 194.33789 349.6582 C 201.8226 347.69435 202.94884 339.94435 203.35547 333.45312 C 204.90227 325.53424 205.6036 317.37039 207.62109 309.58594 C 210.37332 305.09534 216.51228 307.6821 220.74219 307 L 287.05859 307 C 283.1856 299.5625 278.49034 292.46375 275.07031 284.83789 C 275.00751 280.19991 278.40409 276.22418 279.64453 271.85352 C 282.26311 265.56901 284.88142 259.28452 287.5 253 C 261.90492 252.88244 236.26905 253.23397 210.69922 252.82812 C 205.61978 251.2845 206.96551 244.73975 205.72656 240.77344 C 204.55646 233.42862 203.07273 226.10864 202.4043 218.7168 C 200.9847 212.26334 193.96089 209.33968 188 209 z "
       d="m 187.83984,203.62305 c -3.88277,0.11575 -7.96482,1.075 -11.57617,3.40429 -3.61135,2.3293 -6.72598,6.52757 -7.00976,11.69141 l 0.20898,-1.21289 c -4.17389,14.28385 -6.38859,28.62881 -9.97851,42.12891 -0.0399,0.11076 0.19307,0.12672 -1.13672,0.12304 -1.6978,-0.005 -4.38718,-0.64361 -7.94922,-0.0664 l 0.88476,-0.0703 c -23.98235,-0.11656 -47.9138,0.21582 -71.695309,-0.16601 -10.843124,-3.59539 -21.682976,-7.22502 -32.539063,-10.83789 A 5.3789673,5.3789673 0 0 0 41.375,250.09766 c -3.52465,3.86709 -8.786037,7.83025 -12.763672,13.44726 a 5.3789673,5.3789673 0 0 0 -0.990234,3.10742 v 27.27735 a 5.3789673,5.3789673 0 0 0 1.576172,3.80273 c 4.116539,4.11655 8.233076,8.23307 12.349609,12.34961 a 5.3789673,5.3789673 0 0 0 5.423828,1.32617 c 11.568508,-3.65768 22.72436,-7.90591 33.847656,-11.02929 26.380281,0.10494 52.719611,-0.20384 78.923831,0.16211 0.0893,0.18194 0.21536,0.41059 0.36328,1.06445 0.37511,1.65816 0.33402,4.44673 1.67187,7.82617 l -0.25976,-0.86133 c 2.05322,9.64743 4.40963,19.08463 6.19922,28.43946 l -0.0508,-1.69336 c -1.00234,7.8331 3.45323,14.56325 9.24414,17.97461 5.66199,3.33541 12.83603,4.19972 19.26172,1.3789 5.08523,-1.52148 8.62235,-5.4008 10.28124,-9.31836 1.6465,-3.88828 2.00724,-7.7932 2.22461,-11.13086 1.48427,-7.68629 2.27642,-15.09872 3.87696,-21.86132 0.0302,-0.0934 -0.21039,-0.11529 1.07226,-0.11524 1.6985,7e-5 4.39706,0.64268 7.97071,0.0664 l -0.85547,0.0684 h 66.3164 a 5.3789673,5.3789673 0 0 0 4.76953,-7.86329 c -3.80409,-7.30519 -8.03234,-13.93741 -11.17578,-20.59179 0.49811,-2.05922 2.65835,-5.28932 4.16602,-10.60156 l -0.20898,0.59961 c 2.61862,-6.28463 5.23693,-12.56912 7.85546,-18.85352 a 5.3789673,5.3789673 0 0 0 -4.93945,-7.44727 c -25.15695,-0.11554 -50.26699,0.20552 -75.23633,-0.16211 -0.0691,-0.16453 -0.13612,-0.25539 -0.23828,-0.77929 -0.30006,-1.53875 -0.15371,-4.19398 -1.18945,-7.50977 l 0.17578,0.75781 c -1.19389,-7.49414 -2.64257,-14.69726 -3.27539,-21.69531 a 5.3789673,5.3789673 0 0 0 -0.10547,-0.67187 c -1.07304,-4.87803 -4.39896,-8.49233 -8.01758,-10.62696 -3.61862,-2.13462 -7.59632,-3.08985 -11.33203,-3.30273 a 5.3789673,5.3789673 0 0 0 -0.4668,-0.008 z" />
    <path
       id="path950"
       style="fill:#d3bc5f;fill-opacity:1;stroke:#ffffff;stroke-width:0;stroke-linecap:round;stroke-linejoin:round"
       sodipodi:type="inkscape:offset"
       inkscape:radius="4.8455653"
       inkscape:original="M 411.39062 207.66016 C 397.72591 211.56446 384.06119 215.46875 370.39648 219.37305 C 375.20104 234.1654 380.4693 248.8474 384.99219 263.70703 C 384.40281 269.20181 381.91846 274.60365 381.45703 279.99805 C 390.566 301.03741 400.00646 321.96104 408.91016 343.07227 C 410.02766 347.62102 403.72116 351.02564 400.53125 347.5957 C 396.08586 340.55446 392.60432 332.85895 388.50977 325.58008 C 381.89678 313.18082 375.28291 300.78207 368.66992 288.38281 C 357.02681 285.67183 345.23934 283.41713 333.68359 280.42969 C 329.12495 276.52306 325.59764 271.44076 321.41016 267.11328 L 301.69531 244.93164 L 285.54688 283.6875 C 298.5929 307.34714 311.94957 330.86267 324.80273 354.61133 C 325.58774 358.65998 322.28083 362.14733 321.28906 365.90625 L 308.67578 396.17578 L 416.29492 363.89062 C 422.34765 349.36458 428.4004 334.83854 434.45312 320.3125 C 421.4071 296.65286 408.05043 273.13733 395.19727 249.38867 C 394.41233 245.34005 397.71931 241.85273 398.71094 238.09375 L 411.39062 207.66016 z "
       d="m 411.28906,202.81641 a 4.8460499,4.8460499 0 0 0 -1.23047,0.18554 c -13.6647,3.9043 -27.32942,7.80859 -40.99414,11.71289 a 4.8460499,4.8460499 0 0 0 -3.27734,6.1543 c 4.71024,14.50195 9.80168,28.78403 14.20117,43.10938 -0.64176,4.26206 -2.82565,9.36787 -3.35937,15.60742 a 4.8460499,4.8460499 0 0 0 0.38086,2.33789 c 8.95294,20.67898 18.18542,41.1903 26.9082,61.81836 -3.87336,-6.36477 -7.20461,-13.46021 -11.18555,-20.53711 l 0.0527,0.0937 c -6.6131,-12.39947 -13.22697,-24.79821 -19.83985,-37.19727 a 4.8460499,4.8460499 0 0 0 -3.17578,-2.4375 c -11.34234,-2.64095 -22.65071,-4.85011 -33.62109,-7.63281 -3.6386,-3.32923 -6.96903,-7.85696 -11.25586,-12.28711 l 0.13867,0.15039 -19.71484,-22.18164 a 4.8460499,4.8460499 0 0 0 -8.09375,1.35547 l -16.14844,38.75586 a 4.8460499,4.8460499 0 0 0 0.22851,4.20312 c 12.87177,23.34363 26.00969,46.50456 38.65625,69.83789 0.0373,0.51347 -0.0219,1.11907 -0.64648,2.47266 -0.70836,1.53524 -1.96848,3.52546 -2.70898,6.33203 l 0.21289,-0.62695 -12.61329,30.26953 a 4.8460499,4.8460499 0 0 0 5.86524,6.50391 L 417.6875,368.53125 a 4.8460499,4.8460499 0 0 0 3.08008,-2.77734 c 6.05273,-14.52604 12.10548,-29.05208 18.1582,-43.57813 a 4.8460499,4.8460499 0 0 0 -0.22851,-4.20312 c -12.87177,-23.34363 -26.00969,-46.50456 -38.65625,-69.83789 -0.0373,-0.51344 0.0219,-1.11904 0.64648,-2.47266 0.70839,-1.53527 1.96857,-3.52533 2.70898,-6.33203 l -0.21289,0.62695 12.67969,-30.43359 a 4.8460499,4.8460499 0 0 0 -4.57422,-6.70703 z" />
    <path
       id="path946"
       style="fill:#aa0000;fill-opacity:1;stroke:#ffffff;stroke-width:0;stroke-linecap:round;stroke-linejoin:round"
       sodipodi:type="inkscape:offset"
       inkscape:radius="4.8142052"
       inkscape:original="M 133.41992 65.347656 C 117.55143 78.775391 101.68294 92.203124 85.814453 105.63086 L 106.42773 167.46875 C 119.70573 156.40365 132.98372 145.33854 146.26172 134.27344 C 142.57036 121.55016 138.40886 108.92471 135.00195 96.142578 C 134.76135 91.996776 139.69533 89.811318 143.10742 91.580078 C 172.11529 98.260407 201.22453 104.6125 230.16992 111.49609 C 234.04775 113.16142 233.76388 119.1735 229.91992 120.72852 C 218.71423 128.19897 207.50841 135.67017 196.30273 143.14062 C 190.85351 162.21484 185.4043 181.28906 179.95508 200.36328 C 189.70696 197.04873 201.58145 200.1757 207.92188 208.42188 C 215.89823 184.76377 223.55761 160.9723 231.73047 137.39648 C 235.09694 133.75023 239.98649 131.77153 243.89648 128.72656 C 252.83461 122.96692 261.46665 116.62703 270.58398 111.20508 C 278.12962 109.85766 285.70924 108.67302 293.26758 107.38672 C 294.90507 102.09657 297.45957 96.805773 298.52734 91.515625 C 297.33229 88.129348 296.13646 84.743699 294.94141 81.357422 C 283.21129 83.838224 271.5456 86.802459 259.77734 88.994141 C 217.74023 80.719477 175.53291 73.249918 133.41992 65.347656 z "
       d="m 133.39062,60.533203 a 4.8146866,4.8146866 0 0 0 -3.08007,1.138672 C 114.44206,75.09961 98.573566,88.527342 82.705078,101.95508 a 4.8146866,4.8146866 0 0 0 -1.457031,5.19726 l 20.613283,61.83789 a 4.8146866,4.8146866 0 0 0 7.64844,2.17774 c 13.278,-11.0651 26.55598,-22.13022 39.83398,-33.19531 a 4.8146866,4.8146866 0 0 0 1.54102,-5.04102 c -3.62398,-12.49104 -7.62827,-24.75158 -10.9375,-37.015624 0.29487,-0.125635 0.80739,-0.133996 0.94531,-0.0625 a 4.8146866,4.8146866 0 0 0 1.13476,0.417968 c 28.77012,6.625576 57.5902,12.925346 86.20899,19.720706 -0.0727,0.0919 -0.18319,0.29855 -0.1211,0.27343 a 4.8146866,4.8146866 0 0 0 -0.86523,0.45704 c -11.2058,7.47052 -22.41162,14.94173 -33.61719,22.41211 a 4.8146866,4.8146866 0 0 0 -1.95898,2.68359 c -5.44922,19.07422 -10.89844,38.14844 -16.34766,57.22266 a 4.8146866,4.8146866 0 0 0 6.17774,5.88086 c 7.751,-2.63448 17.67308,0.0238 22.60156,6.43359 a 4.8146866,4.8146866 0 0 0 8.37891,-1.39649 c 7.84996,-23.28324 15.38758,-46.63405 23.37695,-69.73828 2.47548,-2.35835 6.62385,-4.29339 10.99219,-7.69531 l -0.34961,0.24805 c 8.86586,-5.71307 17.24796,-11.81033 25.85156,-16.98633 7.17837,-1.26907 14.43029,-2.41359 21.7207,-3.6543 a 4.8146866,4.8146866 0 0 0 3.79102,-3.32226 c 1.4874,-4.80527 4.13968,-10.202186 5.3789,-16.3418 a 4.8146866,4.8146866 0 0 0 -0.17968,-2.554688 c -1.19533,-3.387073 -2.39117,-6.772722 -3.58594,-10.158203 a 4.8146866,4.8146866 0 0 0 -5.53516,-3.109375 c -11.57419,2.447825 -22.92677,5.300842 -34.21679,7.439454 -41.7736,-8.20998 -83.66527,-15.635681 -125.41993,-23.470704 a 4.8146866,4.8146866 0 0 0 -0.91797,-0.08203 z" />
    <path
       id="path944"
       style="fill:#ff6600;fill-opacity:1;stroke:#ffffff;stroke-width:0;stroke-linecap:round;stroke-linejoin:round"
       sodipodi:type="inkscape:offset"
       inkscape:radius="4.5096831"
       inkscape:original="M 293.98047 48.587891 C 298.92165 62.947506 304.32594 77.189207 308.98633 91.621094 C 308.3411 96.676758 305.64967 101.32755 304.27734 106.23633 C 297.93754 124.19893 291.59761 142.1624 285.25781 160.125 L 308.4707 237.50391 L 338.66211 271.4707 C 349.4987 273.87825 360.33529 276.28581 371.17188 278.69336 C 372.22791 273.70967 374.04761 268.6964 374.64062 263.73047 C 365.59262 236.58491 356.54133 209.44075 347.49414 182.29492 C 340.82556 172.74521 333.73379 163.4459 327.31641 153.74805 C 326.46115 149.389 328.39579 144.92507 328.58789 140.53711 L 334.73633 97.494141 L 293.98047 48.587891 z "
       d="m 294.00195,44.080078 a 4.5101341,4.5101341 0 0 0 -4.28515,5.97461 c 4.83332,14.046182 10.04189,27.874199 14.56836,41.759765 -0.67943,3.678596 -2.86257,7.880926 -4.35157,13.207027 l 0.0918,-0.28515 c -6.33981,17.96262 -12.67974,35.92609 -19.01953,53.88867 a 4.5101341,4.5101341 0 0 0 -0.0684,2.79492 l 23.21289,77.37891 a 4.5101341,4.5101341 0 0 0 0.94922,1.70117 l 30.19141,33.9668 a 4.5101341,4.5101341 0 0 0 2.39257,1.40625 c 10.83659,2.40755 21.67318,4.8151 32.50977,7.22265 a 4.5101341,4.5101341 0 0 0 5.39062,-3.46679 c 0.96539,-4.55592 2.85573,-9.67365 3.53516,-15.36329 a 4.5101341,4.5101341 0 0 0 -0.20117,-1.96093 c -9.04812,-27.14592 -18.09749,-54.29016 -27.14453,-81.43555 a 4.5101341,4.5101341 0 0 0 -0.58203,-1.15625 c -6.51817,-9.33431 -13.31415,-18.31733 -19.45899,-27.51562 -0.17404,-2.54823 1.1363,-6.32266 1.36133,-11.46289 l -0.041,0.4414 6.14844,-43.042968 a 4.5101341,4.5101341 0 0 0 -1,-3.52539 l -40.75586,-48.90625 a 4.5101341,4.5101341 0 0 0 -3.44336,-1.621094 z" />
    <path
       id="path942"
       style="fill:#aa0000;fill-opacity:1;stroke:#ffffff;stroke-width:0;stroke-linecap:round;stroke-linejoin:round"
       sodipodi:type="inkscape:offset"
       inkscape:radius="2.5850899"
       inkscape:original="M 386.1875 41.865234 C 365.73568 50.955079 345.28385 60.044921 324.83203 69.134766 C 321.90072 73.697157 329.92792 77.436403 331.77148 81.439453 C 335.42078 86.078194 339.65396 90.351486 342.9043 95.244141 C 341.46972 109.03548 339.05194 122.78975 337.23438 136.56641 C 337.10348 141.90499 334.26276 147.66365 336.1875 152.70117 C 342.36446 161.59566 349.04959 170.20974 354.90625 179.28125 C 358.41364 189.67973 361.85273 200.1019 365.33398 210.50977 C 371.62299 213.09628 379.51086 207.30781 386.4082 206.47852 C 391.36845 204.58345 388.15108 197.68113 389 193.42578 L 389 43.693359 C 388.77665 42.319295 387.5405 41.449243 386.1875 41.865234 z "
       d="m 387.48047,39.265625 c -0.6685,-0.114111 -1.36684,-0.08198 -2.05274,0.128906 a 2.5853484,2.5853484 0 0 0 -0.29101,0.109375 c -20.45182,9.089845 -40.90365,18.179686 -61.35547,27.269532 a 2.5853484,2.5853484 0 0 0 -1.125,0.964843 c -1.10966,1.727115 -1.25128,3.890861 -0.67578,5.535157 0.5755,1.644295 1.60145,2.872356 2.64062,3.986328 2.07835,2.227944 4.34936,4.277266 4.80274,5.261718 a 2.5853484,2.5853484 0 0 0 0.3164,0.515625 c 3.57593,4.545469 7.45652,8.598346 10.46485,12.931641 -1.43339,13.34305 -3.75004,26.74378 -5.5332,40.25977 a 2.5853484,2.5853484 0 0 0 -0.0215,0.27539 c -0.0548,2.23395 -0.7432,4.9039 -1.25586,7.79101 -0.51266,2.88712 -0.85202,6.10648 0.37891,9.32813 a 2.5853484,2.5853484 0 0 0 0.29101,0.55273 c 6.17374,8.88984 12.76684,17.41264 18.50586,26.27149 3.46424,10.27537 6.86694,20.58165 10.3125,30.88281 a 2.5853484,2.5853484 0 0 0 1.46875,1.57031 c 4.1235,1.69589 8.33861,0.60473 12.1211,-0.67773 3.78248,-1.28247 7.38727,-2.83425 10.24414,-3.17774 a 2.5853484,2.5853484 0 0 0 0.61328,-0.15234 c 1.81581,-0.69374 3.20157,-2.12468 3.8418,-3.6582 0.64022,-1.53353 0.70275,-3.05725 0.6582,-4.47852 -0.0891,-2.84255 -0.54434,-5.57399 -0.29492,-6.82422 a 2.5853484,2.5853484 0 0 0 0.0508,-0.50586 V 43.693359 a 2.5853484,2.5853484 0 0 0 -0.0352,-0.414062 c -0.32848,-2.020822 -2.06482,-3.67134 -4.07031,-4.013672 z" />
    <g
       id="g924"
       style="stroke:#000000;stroke-width:10;stroke-linecap:round;stroke-linejoin:round;stroke-miterlimit:4;stroke-dasharray:none;stroke-opacity:1;paint-order:normal" />
  </g>
  <g
     inkscape:groupmode="layer"
     id="g996"
     inkscape:label="Flächen_Mono"
     style="display:none"
     sodipodi:insensitive="true">
    <path
       id="path978"
       style="fill:#6c5d53;fill-opacity:1;stroke:#ffffff;stroke-width:0;stroke-linecap:round;stroke-linejoin:round"
       d="m 386.97461,39.207031 c -21.59827,8.578161 -43.20291,18.515488 -64.23302,28.40661 -3.81294,14.404792 22.32068,20.573626 16.57339,35.867039 -1.42482,16.89621 -6.82605,33.9482 -5.25053,50.6951 14.41537,16.72483 23.47966,36.26184 28.97675,57.52727 6.66884,6.11777 16.98327,-2.29977 24.28888,-2.81047 8.14225,-6.32254 2.61579,-18.90853 4.25586,-28.07021 -0.0235,-45.84706 0.047,-91.699173 -0.0352,-137.543073 -0.33045,-2.20402 -2.41584,-3.947656 -4.57617,-4.072266 z m -92.97266,4.873047 c -5.76769,0.0562 -5.28723,8.046681 -2.45713,11.23224 4.52562,17.521594 18.72931,35.235255 7.25336,52.898192 -5.60604,17.57728 -13.31269,34.7836 -18.0085,52.52633 8.15558,26.53923 15.41296,53.54997 24.30993,79.76316 10.82435,11.50365 20.55069,24.35891 31.93563,35.17689 11.80436,2.14658 23.57635,6.32946 35.45242,7.33011 6.58713,-3.45837 4.50767,-13.89421 6.63072,-19.81035 -9.19281,-27.84568 -18.29573,-55.80523 -27.92697,-83.48376 -12.00534,-14.51157 -23.51134,-29.46202 -16.69329,-48.65718 1.07697,-11.71784 4.42669,-23.51872 4.43863,-35.203639 -13.98593,-17.248048 -28.15283,-34.675482 -42.87367,-51.263167 -0.63362,-0.330306 -1.34659,-0.506314 -2.06113,-0.508826 z M 133.39062,60.533203 c -8.58293,2.115185 -13.38368,12.062006 -20.93212,16.244873 -9.75158,9.609849 -22.500509,16.807341 -31.194785,27.283364 -0.386722,8.04857 5.27754,15.55538 6.759957,23.41713 5.242682,14.33105 8.959913,29.45411 14.987848,43.38081 6.20989,5.08619 11.91288,-5.72533 16.45675,-7.99024 9.86976,-9.4628 22.48877,-16.67497 31.33278,-26.99184 0.68397,-10.4913 -6.93068,-20.42333 -8.25834,-30.76025 -10.30932,-18.687378 15.73055,-2.24173 23.76568,-3.31428 20.30318,4.86264 42.65574,9.05507 61.63714,14.53527 -11.69083,8.42772 -25.0253,15.23209 -35.90245,24.55977 -5.61891,20.00632 -12.11875,39.98822 -16.85257,60.15328 -0.71869,4.33849 9.77351,3.94416 1.07316,5.97625 -12.25169,13.03421 -10.44279,33.67466 -16.12946,50.09844 -21.16317,6.0878 -51.5994,0.73226 -76.10543,2.39258 -13.826815,-0.22955 -26.209249,-10.12459 -39.865907,-11.04357 -6.84875,3.53065 -12.727477,10.3733 -16.41485,17.01853 0.394839,10.24175 -1.302264,21.00706 0.552005,31.0508 5.788404,4.4353 9.53301,14.36808 17.505619,15.09453 17.631399,-5.15553 34.691201,-13.93903 53.588747,-11.24005 11.479486,1.08985 33.043236,-2.05614 39.637736,1.10769 -9.90565,24.10999 -14.90429,50.65402 -26.52482,73.86887 -12.999399,18.32581 -27.917965,35.59657 -40.121911,54.35553 -1.478948,6.57292 7.466462,8.80034 12.227601,7.06447 20.90393,-4.05926 37.31587,10.58071 55.19859,18.7297 18.32467,8.97651 35.9806,19.86067 54.62637,27.94128 8.38354,-0.82243 10.84001,-12.11928 17.03201,-16.50123 14.77867,-18.10558 31.07842,-35.2563 45.10252,-53.83881 1.72431,-5.45406 -5.11299,-9.28693 -9.67874,-6.69997 -19.26687,0.78185 -40.3294,14.54449 -58.03828,3.15785 -17.77821,-6.35846 -42.40933,-19.4159 -26.83367,-41.17925 4.55673,-7.70602 4.42804,-33.87788 14.88836,-15.11371 25.06614,13.47916 34.86861,-16.43727 34.57225,-35.74373 1.78081,-10.65544 18.61368,-2.83952 27.21314,-5.16838 16.83552,-0.43705 33.92257,0.80888 50.63003,-0.50194 2.22878,-0.98948 3.54119,-3.61808 2.99278,-5.99416 6.5301,19.49104 30.41926,37.99879 24.4043,58.38672 -3.90432,10.88439 -9.99906,21.27457 -12.86615,32.39943 0.98689,6.70709 9.61741,3.91292 13.45499,1.97455 33.94759,-10.44377 68.29908,-19.98077 102.00579,-30.96608 7.62261,-13.32595 11.82458,-28.83619 18.4736,-42.77802 5.32224,-8.57567 -6.49236,-15.98496 -8.40939,-23.72721 -3.74176,-4.66955 2.22354,0.73523 4.38803,-1.43001 12.00172,-6.24706 26.30618,-8.94577 37.5504,-16.38292 4.39753,-5.75691 -4.30124,-11.23285 -9.25987,-11.39394 -17.5446,-6.5954 -34.45255,-15.85499 -52.26264,-21.36784 -3.05995,0.12781 -5.53532,3.20923 -5.00054,6.22478 -9.89343,-10.55094 2.42937,-22.23436 5.26676,-33.37934 0.85274,-6.13336 8.87787,-12.74626 4.98994,-18.95275 -5.88029,-5.06327 -13.96695,2.97753 -20.36778,2.9041 -8.86731,3.84451 -20.0143,3.52113 -28.05382,8.92857 -3.77608,6.66006 4.1866,14.06297 4.55838,20.7821 4.98857,14.29982 11.65083,28.42379 5.44787,43.4051 8.56132,21.25221 18.5175,42.02473 27.27974,63.23214 -11.36323,-19.447 -20.54332,-40.08382 -32.42386,-59.29672 -14.29928,-6.36051 -34.45702,-2.06212 -43.48388,-17.30798 -8.57898,-8.50104 -15.51238,-19.00294 -24.66557,-26.76074 -7.53199,-2.36095 -8.19486,10.79869 -10.4656,12.6017 -0.87995,-9.08793 -14.41187,-4.45063 -19.49889,-5.38372 -19.21111,-2.7026 -47.86529,5.4232 -61.63703,-3.83357 -2.26169,-9.59041 -2.98598,-23.50754 -5.45139,-30.81064 8.47823,2.00501 8.03437,-11.89265 10.58033,-16.09342 11.27569,-23.34033 9.05267,-57.20223 36.30883,-68.49328 11.86775,-10.57978 26.2454,-15.11257 41.78438,-16.4718 6.45572,-4.09263 5.97675,-14.286881 8.36425,-20.708284 -2.04086,-4.622697 -2.01421,-15.290985 -9.38423,-14.537252 -25.61756,9.994169 -51.46778,5.489983 -77.32731,-0.79755 -27.7382,-5.116455 -55.47604,-10.320521 -83.22738,-15.315731 z m 147.3125,223.230467 c 0.10192,0.36322 -0.13235,0.28221 0,0 z m -121.07617,16.77539 c 0.2635,-0.088 0.2634,0.4392 0,0 z m 227.39453,77.44336 c -20.41948,5.84881 -41.07762,11.71444 -61.18183,18.48528 -4.83781,5.36676 -0.52213,13.98242 -1.97832,20.43626 -2.76115,10.09146 9.86009,12.785 15.45459,17.91843 24.66868,16.6311 48.59122,34.78122 73.64992,50.62332 7.96769,0.35561 7.41569,-11.1236 10.96546,-15.83676 10.35158,-25.27647 21.91184,-50.22721 31.56602,-75.69241 -0.11129,-6.39334 -8.96586,-6.11763 -12.31816,-2.31897 -12.32378,1.92034 -28.77334,20.97554 -38.59291,11.88146 -5.35409,-7.20987 -13.12977,-13.21281 -12.96712,-22.60937 -0.8258,-1.73544 -2.67543,-2.89717 -4.59765,-2.88724 z" />
    <g
       id="g994"
       style="stroke:#000000;stroke-width:10;stroke-linecap:round;stroke-linejoin:round;stroke-miterlimit:4;stroke-dasharray:none;stroke-opacity:1;paint-order:normal" />
  </g>
  <g
     inkscape:groupmode="layer"
     id="g927"
     inkscape:label="Umrandung_Weiß_15"
     style="display:none">
    <g
       id="g925"
       style="stroke:#ffffff;stroke-width:15;stroke-linecap:round;stroke-linejoin:round;stroke-miterlimit:4;stroke-dasharray:none;stroke-opacity:1;paint-order:normal">
      <path
         id="path909"
         style="color:#000000;font-style:normal;font-variant:normal;font-weight:normal;font-stretch:normal;font-size:medium;line-height:normal;font-family:sans-serif;font-variant-ligatures:normal;font-variant-position:normal;font-variant-caps:normal;font-variant-numeric:normal;font-variant-alternates:normal;font-variant-east-asian:normal;font-feature-settings:normal;font-variation-settings:normal;text-indent:0;text-align:start;text-decoration:none;text-decoration-line:none;text-decoration-style:solid;text-decoration-color:#000000;letter-spacing:normal;word-spacing:normal;text-transform:none;writing-mode:lr-tb;direction:ltr;text-orientation:mixed;dominant-baseline:auto;baseline-shift:baseline;text-anchor:start;white-space:normal;shape-padding:0;shape-margin:0;inline-size:0;clip-rule:nonzero;display:inline;overflow:visible;visibility:visible;opacity:1;isolation:auto;mix-blend-mode:normal;color-interpolation:sRGB;color-interpolation-filters:linearRGB;solid-color:#000000;solid-opacity:1;vector-effect:none;fill:#ffffff;fill-opacity:1;fill-rule:nonzero;stroke:none;stroke-linecap:round;stroke-linejoin:round;stroke-miterlimit:4;stroke-dasharray:none;stroke-dashoffset:0;stroke-opacity:1;paint-order:normal;color-rendering:auto;image-rendering:auto;shape-rendering:auto;text-rendering:auto;enable-background:accumulate;stop-color:#000000;stop-opacity:1"
         d="m 279.89062,16.503906 a 7.50075,7.50075 0 0 0 -6.96289,9.992188 l 15.36524,43.533203 -28.375,6.306641 -18.44727,-3.689454 A 7.50075,7.50075 0 0 0 241.36523,72.625 l -108,-20 a 7.50075,7.50075 0 0 0 -1.37304,-0.125 7.50075,7.50075 0 0 0 -4.83594,1.775391 l -52,44 a 7.50075,7.50075 0 0 0 -2.271484,8.095699 l 24,72 a 7.50075,7.50075 0 0 0 11.916014,3.39063 l 48,-40 a 7.50075,7.50075 0 0 0 2.38281,-7.91602 l -8.30468,-27.68164 58.43359,13.28125 -21.47266,14.31446 a 7.50075,7.50075 0 0 0 -3.05078,4.17968 l -20.54687,71.91602 c -2.04279,3.55884 -3.44556,7.87596 -3.65039,12.9082 L 153.98438,252.5 H 81.216797 L 46.371094,240.88477 a 7.50075,7.50075 0 0 0 -7.673828,1.8125 l -16,16 A 7.50075,7.50075 0 0 0 20.5,264 v 32 a 7.50075,7.50075 0 0 0 2.197266,5.30273 l 16,16 a 7.50075,7.50075 0 0 0 7.673828,1.8125 L 81.216797,307.5 h 48.376953 l -12.70898,38.12891 -7.61524,22.8457 L 62,431.5 a 7.50075,7.50075 0 0 0 6,12 h 34.16016 l 90.37109,47.14844 a 7.50075,7.50075 0 0 0 9.18359,-1.79102 l 68,-80 a 7.50075,7.50075 0 0 0 -7.09765,-12.22851 L 201.09766,408.16406 166.13281,390.68164 163.90625,384 l 8.38672,-25.16406 c 0.78299,0.52115 1.57185,0.98221 2.35351,1.37304 C 181.43534,363.60341 188,363.5 188,363.5 c 0,0 6.56466,0.10341 13.35352,-3.29102 6.57808,-3.28904 13.62922,-11.23437 14.06445,-23.09375 L 218.35352,319.5 h 72.78906 l 20.53711,36.9668 -18.60352,44.64843 a 7.50075,7.50075 0 0 0 9.07813,10.06836 L 316.5,406.87891 V 424 a 7.50075,7.50075 0 0 0 3.2168,6.15625 l 92,64 a 7.50075,7.50075 0 0 0 11.1914,-3.23437 l 44,-104 a 7.50075,7.50075 0 0 0 -10.05078,-9.73243 L 410.1875,398.73047 399.5,385.36914 v -3.38867 l 22.6543,-6.79688 a 7.50075,7.50075 0 0 0 4.76953,-4.29882 l 20,-48 a 7.50075,7.50075 0 0 0 -0.36719,-6.52735 l -6.44922,-11.60937 42.77735,-17.82422 a 7.50075,7.50075 0 0 0 0.0254,-13.83594 l -72.51563,-30.5332 16.5293,-39.66992 A 7.50075,7.50075 0 0 0 420.00195,192.5 a 7.50075,7.50075 0 0 0 -2.0625,0.28906 L 399.5,198.05664 V 36 a 7.50075,7.50075 0 0 0 -7.46484,-7.5 7.50075,7.50075 0 0 0 -3.08204,0.646484 L 319.70117,59.925781 285.76172,19.199219 a 7.50075,7.50075 0 0 0 -5.8711,-2.695313 z M 384.5,47.541016 V 202.34375 l -15.65625,4.47266 -9.72852,-29.1875 a 7.50075,7.50075 0 0 0 -1.01171,-1.98829 l -18.25391,-25.55468 7.57422,-53.025393 a 7.50075,7.50075 0 0 0 -1.66211,-5.861328 L 329.68359,71.904297 Z m -83.53125,13.33789 31.13477,37.361328 -7.52735,52.699216 a 7.50075,7.50075 0 0 0 1.32031,5.41993 l 19.34571,27.08203 26.95117,80.85742 -2.85547,11.42578 -29.34375,-6.51953 -29.28711,-32.94922 -22.82031,-76.06641 23.18555,-65.693356 a 7.50075,7.50075 0 0 0 0,-4.992188 z m -166.83789,7.142578 104.45117,19.34375 19.94727,3.988282 a 7.50075,7.50075 0 0 0 3.09765,-0.03125 L 293.32227,84.279297 296.04688,92 l -4.64649,13.16211 -20.63281,3.43945 a 7.50075,7.50075 0 0 0 -2.92774,1.15821 l -36,24 a 7.50075,7.50075 0 0 0 -2.95507,3.86914 l -22.01758,66.05078 c -1.77085,-1.65078 -3.65918,-2.96143 -5.51367,-3.88867 C 194.56466,196.39659 188,196.5 188,196.5 c 0,0 -1.80181,-0.0156 -4.46875,0.4375 l 14.92187,-52.22656 33.70704,-22.47071 a 7.50075,7.50075 0 0 0 -2.49805,-13.55468 l -88,-20.000003 a 7.50075,7.50075 0 0 0 -8.8457,9.46875 l 10.57617,35.255863 -35.75196,29.79296 -18.919917,-56.75781 z m 151.56836,53.298826 -12.77149,36.1836 a 7.50075,7.50075 0 0 0 -0.11132,4.65039 l 20.91601,69.72265 a 7.5,7.5 0 0 0 -0.65625,1.23828 L 290,240.5 h -71.64648 l -2.64844,-15.89648 3.41015,-10.23243 23.18555,-69.55859 32.51953,-21.67969 z m 121.38867,90.16797 -14.01172,33.62695 a 7.50075,7.50075 0 0 0 0.36719,6.52735 l 38.23633,68.82422 -17.23633,41.36914 -101.42774,30.42968 13.90821,-33.38085 a 7.50075,7.50075 0 0 0 -0.36719,-6.52735 l -38.23633,-68.82422 14.15235,-33.96484 27.92187,31.41406 a 7.50075,7.50075 0 0 0 3.97852,2.33985 l 32.63281,7.25 30.37695,56.95703 a 7.50075,7.50075 0 0 0 13.48828,-6.53516 l -26.97461,-61.65625 3.37891,-13.51953 a 7.50075,7.50075 0 0 0 -0.16016,-4.18945 L 373.5918,221.05859 Z M 188,211.5 c 0,0 3.43534,0.10341 6.64648,1.70898 C 197.85763,214.81456 200.5,216.5 200.5,224 a 7.50075,7.50075 0 0 0 0.002,0.10938 7.5,7.5 0 0 0 0,0.0234 7.50075,7.50075 0 0 0 0.004,0.14649 7.5,7.5 0 0 0 0.006,0.11914 7.50075,7.50075 0 0 0 0.0547,0.58594 7.5,7.5 0 0 0 0.0137,0.10546 7.50075,7.50075 0 0 0 0.0215,0.14258 7.5,7.5 0 0 0 0.006,0.0332 l 3.99414,23.9668 A 7.50075,7.50075 0 0 0 212,255.5 h 71.75 l -10.67383,25.61523 a 7.50075,7.50075 0 0 0 0.36719,6.52735 L 282.80859,304.5 H 212 a 7.50075,7.50075 0 0 0 -7.39844,6.26758 l -4,24 A 7.50075,7.50075 0 0 0 200.5,336 c 0,7.5 -2.64237,9.18544 -5.85352,10.79102 C 191.43534,348.39659 188,348.5 188,348.5 c 0,0 -3.43534,-0.10341 -6.64648,-1.70898 C 178.14237,345.18544 175.5,343.5 175.5,336 a 7.50075,7.50075 0 0 0 -0.17773,-1.62695 l -8,-36 A 7.50075,7.50075 0 0 0 160,292.5 H 140.10938 139.88086 80 a 7.50075,7.50075 0 0 0 -2.371094,0.38477 L 46.025391,303.41992 35.5,292.89258 v -25.78516 l 10.525391,-10.52734 31.603515,10.53515 A 7.50075,7.50075 0 0 0 80,267.5 h 80 a 7.50075,7.50075 0 0 0 7.32227,-5.87305 l 7.95703,-35.80273 3.05468,-10.69531 c 0.88452,-0.80225 1.91698,-1.36864 3.01954,-1.91993 C 184.56466,211.60341 188,211.5 188,211.5 Z m 227.87891,49.63867 44.70703,18.82422 -27.81055,11.58789 z M 145.40625,307.5 h 8.57813 l 6.60742,29.73633 c 0.0985,2.41984 0.48536,4.6659 1.07422,6.75195 a 7.5,7.5 0 0 0 -0.78125,1.64063 l -12,36 a 7.50075,7.50075 0 0 0 0,4.74218 l 4,12 a 7.50075,7.50075 0 0 0 3.76171,4.33789 l 40,20 a 7.50075,7.50075 0 0 0 4.73633,0.66211 l 43.19141,-8.09765 -50.41211,59.30859 -86.69336,-45.23047 A 7.50075,7.50075 0 0 0 104,428.5 H 83 l 39,-52 a 7.50075,7.50075 0 0 0 1.11523,-2.12891 l 8,-24 z M 384.5,386.48047 V 388 a 7.50075,7.50075 0 0 0 1.64258,4.68555 l 16,20 a 7.50075,7.50075 0 0 0 9,2.125 l 34.39453,-15.875 -32.84375,77.6289 L 331.5,420.08203 v -17.70312 z" />
    </g>
  </g>
  <g
     inkscape:groupmode="layer"
     id="g57"
     inkscape:label="Umrandung_Weiß_10"
     style="display:none"
     sodipodi:insensitive="true">
    <g
       id="g55"
       style="stroke:#ffffff;stroke-width:10;stroke-linecap:round;stroke-linejoin:round;stroke-miterlimit:4;stroke-dasharray:none;stroke-opacity:1;paint-order:normal">
      <path
         id="path39"
         style="color:#000000;font-style:normal;font-variant:normal;font-weight:normal;font-stretch:normal;font-size:medium;line-height:normal;font-family:sans-serif;font-variant-ligatures:normal;font-variant-position:normal;font-variant-caps:normal;font-variant-numeric:normal;font-variant-alternates:normal;font-variant-east-asian:normal;font-feature-settings:normal;font-variation-settings:normal;text-indent:0;text-align:start;text-decoration:none;text-decoration-line:none;text-decoration-style:solid;text-decoration-color:#000000;letter-spacing:normal;word-spacing:normal;text-transform:none;writing-mode:lr-tb;direction:ltr;text-orientation:mixed;dominant-baseline:auto;baseline-shift:baseline;text-anchor:start;white-space:normal;shape-padding:0;shape-margin:0;inline-size:0;clip-rule:nonzero;display:inline;overflow:visible;visibility:visible;opacity:1;isolation:auto;mix-blend-mode:normal;color-interpolation:sRGB;color-interpolation-filters:linearRGB;solid-color:#000000;solid-opacity:1;vector-effect:none;fill:#ffffff;fill-opacity:1;fill-rule:nonzero;stroke:none;stroke-linecap:round;stroke-linejoin:round;stroke-miterlimit:4;stroke-dasharray:none;stroke-dashoffset:0;stroke-opacity:1;paint-order:normal;color-rendering:auto;image-rendering:auto;shape-rendering:auto;text-rendering:auto;enable-background:accumulate;stop-color:#000000;stop-opacity:1"
         d="m 280.05469,19.001953 a 5.0005,5.0005 0 0 0 -4.76953,6.662109 l 16.30273,46.195313 -31.64258,7.03125 -18.96484,-3.792969 a 5.0005,5.0005 0 0 0 -0.0703,-0.01367 l -108,-20 A 5.0005,5.0005 0 0 0 131.97461,55 5.0005,5.0005 0 0 0 128.76953,56.183594 L 76.769531,100.18359 a 5.0005,5.0005 0 0 0 -1.513672,5.39844 l 24,72 a 5.0005,5.0005 0 0 0 7.945311,2.25977 l 48,-40 a 5.0005,5.0005 0 0 0 1.58789,-5.2793 l -9.53711,-31.78711 68.29102,15.51953 -26.31641,17.54492 a 5.0005,5.0005 0 0 0 -2.03515,2.78711 l -20.54102,71.89649 c -2.05028,3.37049 -3.45445,7.57968 -3.59375,12.67187 L 155.98828,255 H 80.810547 L 45.582031,243.25586 a 5.0005,5.0005 0 0 0 -5.117187,1.20898 l -16,16 A 5.0005,5.0005 0 0 0 23,264 v 32 a 5.0005,5.0005 0 0 0 1.464844,3.53516 l 16,16 a 5.0005,5.0005 0 0 0 5.117187,1.20898 L 80.810547,305 H 133.0625 l -13.80664,41.41797 -7.74219,23.23047 L 64,433 a 5.0005,5.0005 0 0 0 4,8 h 34.77344 l 90.91406,47.43359 a 5.0005,5.0005 0 0 0 6.12305,-1.19531 l 68,-80 a 5.0005,5.0005 0 0 0 -4.73243,-8.15234 l -62.3457,11.68945 -36.64453,-18.32227 -2.81836,-8.45312 9.75586,-29.26367 c 1.52391,1.35547 3.14079,2.43758 4.73828,3.23633 C 181.95624,361.06894 188,361 188,361 c 0,0 6.04376,0.0689 12.23633,-3.02734 6.05938,-3.0297 12.43945,-10.02757 12.71289,-21.25586 L 216.23633,317 H 292 a 5,5 0 0 0 0.59375,-0.0352 l 21.85937,39.34766 -19.06835,45.76367 a 5.0005,5.0005 0 0 0 6.05273,6.71289 L 319,403.51953 V 424 a 5.0005,5.0005 0 0 0 2.14453,4.10547 l 92,64 a 5.0005,5.0005 0 0 0 7.46094,-2.1582 l 44,-104 a 5.0005,5.0005 0 0 0 -6.70117,-6.48633 L 409.45898,401.82031 397,386.24609 v -6.125 l 24.4375,-7.33203 a 5.0005,5.0005 0 0 0 3.17773,-2.86523 l 20,-48 a 5.0005,5.0005 0 0 0 -0.24414,-4.35156 l -7.80859,-14.05665 45.36133,-18.90039 a 5.0005,5.0005 0 0 0 0.0156,-9.22265 l -74.81054,-31.5 17.48632,-41.96875 A 5.0005,5.0005 0 0 0 420.04883,195 a 5.0005,5.0005 0 0 0 -1.42188,0.19141 L 397,201.37109 V 36 a 5.0005,5.0005 0 0 0 -5.04492,-5 5.0005,5.0005 0 0 0 -1.98633,0.431641 L 318.99023,62.976562 283.8418,20.798828 a 5.0005,5.0005 0 0 0 -3.78711,-1.796875 z M 387,43.693359 V 204 a 5,5 0 0 0 0.006,0.22656 l -19.77539,5.65039 -10.48633,-31.45898 a 5.0005,5.0005 0 0 0 -0.67578,-1.32422 l -18.83594,-26.36914 7.7168,-54.017579 A 5.0005,5.0005 0 0 0 343.8418,92.798828 L 325.64453,70.962891 Z m -93.01953,4.894532 40.75586,48.90625 -7.68555,53.798829 a 5.0005,5.0005 0 0 0 0.88086,3.61328 l 19.5625,27.38867 11.73828,35.2168 a 5,5 0 0 0 0.0371,0.10742 l 15.52735,46.58008 -3.625,14.49414 L 338.66211,271.4707 308.4707,237.50391 285.25781,160.125 308.71484,93.664062 a 5.0005,5.0005 0 0 0 0,-3.328124 z m -160.56055,16.759765 105.63477,19.5625 19.96484,3.992188 a 5.0005,5.0005 0 0 0 2.06445,-0.02148 L 294.94141,81.357422 298.69727,92 l -5.42969,15.38672 -22.08985,3.68164 a 5.0005,5.0005 0 0 0 -1.95117,0.77148 l -36,24 a 5.0005,5.0005 0 0 0 -1.9707,2.57813 l -23.33398,70.00391 c -2.25215,-2.92515 -4.99965,-5.05158 -7.68555,-6.39454 C 194.04376,198.93106 188,199 188,199 c 0,0 -3.5791,-0.0249 -8.04492,1.36328 l 16.34765,-57.22266 34.47071,-22.98046 a 5.0005,5.0005 0 0 0 -1.66602,-9.03516 l -88,-20 a 5.0005,5.0005 0 0 0 -5.89648,6.3125 l 11.05078,36.83594 -39.83399,33.19531 -20.613277,-61.83789 z m 156.04492,52.810544 -14.17968,40.17774 a 5.0005,5.0005 0 0 0 -0.0742,3.10156 l 21.29492,70.98633 a 5,5 0 0 0 -1.12109,1.65234 L 291.66602,243 h -75.42969 l -3.09961,-18.59375 3.60742,-10.82422 23.45703,-70.37305 33.67969,-22.45312 z m 121.92578,89.50196 -16.00585,38.41601 a 5.0005,5.0005 0 0 0 0.24414,4.35156 l 38.82421,69.88477 -18.1582,43.57812 -107.61914,32.28516 15.93945,-38.25195 a 5.0005,5.0005 0 0 0 -0.24414,-4.35156 l -38.82421,-69.88477 16.14843,-38.75586 30.56836,34.39063 a 5.0005,5.0005 0 0 0 2.65235,1.55859 l 33.7539,7.50195 30.91797,57.97071 a 5.0005,5.0005 0 0 0 8.99219,-4.35743 l -27.31641,-62.4375 3.58789,-14.3457 a 5.0005,5.0005 0 0 0 -0.10742,-2.79492 L 370.39648,219.37305 Z M 188,209 c 0,0 3.95624,0.0689 7.76367,1.97266 C 199.5711,212.87637 203,215.66667 203,224 a 5,5 0 0 0 0.0293,0.54492 5.0005,5.0005 0 0 0 0.004,0.0352 5,5 0 0 0 0.0469,0.30664 l 3.98828,23.93555 A 5.0005,5.0005 0 0 0 212,253 h 75.5 l -12.11523,29.07617 a 5.0005,5.0005 0 0 0 0.24414,4.35156 L 287.05859,307 H 212 a 5.0005,5.0005 0 0 0 -4.93164,4.17773 l -4,24 A 5.0005,5.0005 0 0 0 203,336 c 0,8.33333 -3.4289,11.12363 -7.23633,13.02734 C 191.95624,350.93106 188,351 188,351 c 0,0 -3.95624,-0.0689 -7.76367,-1.97266 C 176.4289,347.12363 173,344.33333 173,336 a 5.0005,5.0005 0 0 0 -0.11914,-1.08398 l -8,-36 A 5.0005,5.0005 0 0 0 160,295 H 80 a 5.0005,5.0005 0 0 0 -1.582031,0.25586 L 45.349609,306.2793 33,293.92969 v -27.85938 l 12.349609,-12.34961 33.06836,11.02344 A 5.0005,5.0005 0 0 0 80,265 h 80 a 5.0005,5.0005 0 0 0 4.88086,-3.91602 l 7.96484,-35.83789 3.22071,-11.27734 c 1.20313,-1.33215 2.65454,-2.23841 4.16992,-2.99609 C 184.04376,209.06894 188,209 188,209 Z m 222.17969,47.02539 56.8789,23.94922 -35.38281,14.74414 z M 143.60547,305 h 12.38281 l 7.06836,31.80469 c 0.0782,2.85801 0.55494,5.43766 1.31836,7.75 a 5,5 0 0 0 -1.11914,1.86328 l -12,36 a 5.0005,5.0005 0 0 0 0,3.16406 l 4,12 a 5.0005,5.0005 0 0 0 2.50781,2.89063 l 40,20 a 5.0005,5.0005 0 0 0 3.15821,0.4414 l 50.12695,-9.39844 -56.27344,66.20508 -88.46289,-46.15429 A 5.0005,5.0005 0 0 0 104,431 H 78 l 42,-56 a 5.0005,5.0005 0 0 0 0.74414,-1.41797 l 8,-24 z M 387,383.12109 V 388 a 5.0005,5.0005 0 0 0 1.0957,3.12305 l 16,20 a 5.0005,5.0005 0 0 0 6,1.41601 L 450.35938,393.95703 413.79688,480.375 329,421.38672 v -20.86719 z" />
    </g>
  </g>
  <g
     inkscape:groupmode="layer"
     id="g907"
     inkscape:label="Umrandung_Schwarz_15"
     style="display:none"
     sodipodi:insensitive="true">
    <g
       id="g905"
       style="stroke:#000000;stroke-width:15;stroke-linecap:round;stroke-linejoin:round;stroke-miterlimit:4;stroke-dasharray:none;stroke-opacity:1;paint-order:normal">
      <path
         style="fill:none;stroke:#000000;stroke-width:15;stroke-linecap:round;stroke-linejoin:round;stroke-miterlimit:4;stroke-dasharray:none;stroke-opacity:1;paint-order:normal"
         d="m 280,24 60,72 -8,56 20,28 28,84 -4,16 28,64 -32,-60 -36,-8 -32,-36 -24,-80 24,-68 z m 16,88 -24,4 -36,24 -24,72 -4,12"
         id="path888"
         sodipodi:nodetypes="ccccccccccccccccc" />
      <path
         style="fill:none;stroke:#000000;stroke-width:15;stroke-linecap:round;stroke-linejoin:round;stroke-miterlimit:4;stroke-dasharray:none;stroke-opacity:1;paint-order:normal"
         d="m 168,224 24,-84 36,-24 -88,-20 12,40 -48,40 -24,-72 52,-44 108,20 20,4 36,-8"
         id="path890"
         sodipodi:nodetypes="ccccccccccc" />
      <path
         style="fill:none;stroke:#000000;stroke-width:15;stroke-linecap:round;stroke-linejoin:round;stroke-miterlimit:4;stroke-dasharray:none;stroke-opacity:1;paint-order:normal"
         d="M 320,68 392,36 V 204"
         id="path892"
         sodipodi:nodetypes="ccc" />
      <path
         style="fill:none;stroke:#000000;stroke-width:15;stroke-linecap:round;stroke-linejoin:round;stroke-miterlimit:4;stroke-dasharray:none;stroke-opacity:1;paint-order:normal"
         d="m 292,248 h -80 l -4,-24 c 0,-20 -20,-20 -20,-20 v 0 c 0,0 -20,0 -20,20 l -8,36 H 80 L 44,248 28,264 v 32 l 16,16 36,-12 h 80 l 8,36 c 0,20 20,20 20,20 v 0 c 0,0 20,0 20,-20 l 4,-24 h 80"
         id="path894"
         sodipodi:nodetypes="cccccccccccccccccccc" />
      <path
         style="fill:none;stroke:#000000;stroke-width:15;stroke-linecap:round;stroke-linejoin:round;stroke-miterlimit:4;stroke-dasharray:none;stroke-opacity:1;paint-order:normal"
         d="m 364,216 56,-16 -20,48 40,72 -20,48 -120,36 v 0 l 20,-48 -40,-72 20,-48"
         id="path896"
         sodipodi:nodetypes="cccccccccc" />
      <path
         style="fill:none;stroke:#000000;stroke-width:15;stroke-linecap:round;stroke-linejoin:round;stroke-miterlimit:4;stroke-dasharray:none;stroke-opacity:1;paint-order:normal"
         d="m 140,300 -16,48 -8,24 -48,64 h 36 l 92,48 68,-80 -64,12 -40,-20 -4,-12 v 0 l 12,-36"
         id="path898"
         sodipodi:nodetypes="cccccccccccc" />
      <path
         style="fill:none;stroke:#000000;stroke-width:15;stroke-linecap:round;stroke-linejoin:round;stroke-miterlimit:4;stroke-dasharray:none;stroke-opacity:1;paint-order:normal"
         d="m 324,400 v 24 l 92,64 44,-104 -52,24 -16,-20 v -8"
         id="path900"
         sodipodi:nodetypes="cc" />
      <path
         style="fill:none;stroke:#000000;stroke-width:15;stroke-linecap:round;stroke-linejoin:round;stroke-miterlimit:4;stroke-dasharray:none;stroke-opacity:1;paint-order:normal"
         d="m 432,300 48,-20 -76,-32"
         id="path903" />
    </g>
  </g>
  <g
     inkscape:groupmode="layer"
     id="g935"
     inkscape:label="Umrandung_Schwarz_10"
     style="display:inline"
     sodipodi:insensitive="true">
    <g
       id="g933"
       style="stroke:#000000;stroke-width:10;stroke-linecap:round;stroke-linejoin:round;stroke-miterlimit:4;stroke-dasharray:none;stroke-opacity:1;paint-order:normal">
      <path
         id="path931"
         style="color:#000000;font-style:normal;font-variant:normal;font-weight:normal;font-stretch:normal;font-size:medium;line-height:normal;font-family:sans-serif;font-variant-ligatures:normal;font-variant-position:normal;font-variant-caps:normal;font-variant-numeric:normal;font-variant-alternates:normal;font-variant-east-asian:normal;font-feature-settings:normal;font-variation-settings:normal;text-indent:0;text-align:start;text-decoration:none;text-decoration-line:none;text-decoration-style:solid;text-decoration-color:#000000;letter-spacing:normal;word-spacing:normal;text-transform:none;writing-mode:lr-tb;direction:ltr;text-orientation:mixed;dominant-baseline:auto;baseline-shift:baseline;text-anchor:start;white-space:normal;shape-padding:0;shape-margin:0;inline-size:0;clip-rule:nonzero;display:inline;overflow:visible;visibility:visible;opacity:1;isolation:auto;mix-blend-mode:normal;color-interpolation:sRGB;color-interpolation-filters:linearRGB;solid-color:#000000;solid-opacity:1;vector-effect:none;fill:#000000;fill-opacity:1;fill-rule:nonzero;stroke:none;stroke-linecap:round;stroke-linejoin:round;stroke-miterlimit:4;stroke-dasharray:none;stroke-dashoffset:0;stroke-opacity:1;paint-order:normal;color-rendering:auto;image-rendering:auto;shape-rendering:auto;text-rendering:auto;enable-background:accumulate;stop-color:#000000;stop-opacity:1"
         d="m 280.05469,19.001953 a 5.0005,5.0005 0 0 0 -4.76953,6.662109 l 16.30273,46.195313 -31.64258,7.03125 -18.96484,-3.792969 a 5.0005,5.0005 0 0 0 -0.0703,-0.01367 l -108,-20 A 5.0005,5.0005 0 0 0 131.97461,55 5.0005,5.0005 0 0 0 128.76953,56.183594 L 76.769531,100.18359 a 5.0005,5.0005 0 0 0 -1.513672,5.39844 l 24,72 a 5.0005,5.0005 0 0 0 7.945311,2.25977 l 48,-40 a 5.0005,5.0005 0 0 0 1.58789,-5.2793 l -9.53711,-31.78711 68.29102,15.51953 -26.31641,17.54492 a 5.0005,5.0005 0 0 0 -2.03515,2.78711 l -20.54102,71.89649 c -2.05028,3.37049 -3.45445,7.57968 -3.59375,12.67187 L 155.98828,255 H 80.810547 L 45.582031,243.25586 a 5.0005,5.0005 0 0 0 -5.117187,1.20898 l -16,16 A 5.0005,5.0005 0 0 0 23,264 v 32 a 5.0005,5.0005 0 0 0 1.464844,3.53516 l 16,16 a 5.0005,5.0005 0 0 0 5.117187,1.20898 L 80.810547,305 H 133.0625 l -13.80664,41.41797 -7.74219,23.23047 L 64,433 a 5.0005,5.0005 0 0 0 4,8 h 34.77344 l 90.91406,47.43359 a 5.0005,5.0005 0 0 0 6.12305,-1.19531 l 68,-80 a 5.0005,5.0005 0 0 0 -4.73243,-8.15234 l -62.3457,11.68945 -36.64453,-18.32227 -2.81836,-8.45312 9.75586,-29.26367 c 1.52391,1.35547 3.14079,2.43758 4.73828,3.23633 C 181.95624,361.06894 188,361 188,361 c 0,0 6.04376,0.0689 12.23633,-3.02734 6.05938,-3.0297 12.43945,-10.02757 12.71289,-21.25586 L 216.23633,317 H 292 a 5,5 0 0 0 0.59375,-0.0352 l 21.85937,39.34766 -19.06835,45.76367 a 5.0005,5.0005 0 0 0 6.05273,6.71289 L 319,403.51953 V 424 a 5.0005,5.0005 0 0 0 2.14453,4.10547 l 92,64 a 5.0005,5.0005 0 0 0 7.46094,-2.1582 l 44,-104 a 5.0005,5.0005 0 0 0 -6.70117,-6.48633 L 409.45898,401.82031 397,386.24609 v -6.125 l 24.4375,-7.33203 a 5.0005,5.0005 0 0 0 3.17773,-2.86523 l 20,-48 a 5.0005,5.0005 0 0 0 -0.24414,-4.35156 l -7.80859,-14.05665 45.36133,-18.90039 a 5.0005,5.0005 0 0 0 0.0156,-9.22265 l -74.81054,-31.5 17.48632,-41.96875 A 5.0005,5.0005 0 0 0 420.04883,195 a 5.0005,5.0005 0 0 0 -1.42188,0.19141 L 397,201.37109 V 36 a 5.0005,5.0005 0 0 0 -5.04492,-5 5.0005,5.0005 0 0 0 -1.98633,0.431641 L 318.99023,62.976562 283.8418,20.798828 a 5.0005,5.0005 0 0 0 -3.78711,-1.796875 z M 387,43.693359 V 204 a 5,5 0 0 0 0.006,0.22656 l -19.77539,5.65039 -10.48633,-31.45898 a 5.0005,5.0005 0 0 0 -0.67578,-1.32422 l -18.83594,-26.36914 7.7168,-54.017579 A 5.0005,5.0005 0 0 0 343.8418,92.798828 L 325.64453,70.962891 Z m -93.01953,4.894532 40.75586,48.90625 -7.68555,53.798829 a 5.0005,5.0005 0 0 0 0.88086,3.61328 l 19.5625,27.38867 11.73828,35.2168 a 5,5 0 0 0 0.0371,0.10742 l 15.52735,46.58008 -3.625,14.49414 L 338.66211,271.4707 308.4707,237.50391 285.25781,160.125 308.71484,93.664062 a 5.0005,5.0005 0 0 0 0,-3.328124 z m -160.56055,16.759765 105.63477,19.5625 19.96484,3.992188 a 5.0005,5.0005 0 0 0 2.06445,-0.02148 L 294.94141,81.357422 298.69727,92 l -5.42969,15.38672 -22.08985,3.68164 a 5.0005,5.0005 0 0 0 -1.95117,0.77148 l -36,24 a 5.0005,5.0005 0 0 0 -1.9707,2.57813 l -23.33398,70.00391 c -2.25215,-2.92515 -4.99965,-5.05158 -7.68555,-6.39454 C 194.04376,198.93106 188,199 188,199 c 0,0 -3.5791,-0.0249 -8.04492,1.36328 l 16.34765,-57.22266 34.47071,-22.98046 a 5.0005,5.0005 0 0 0 -1.66602,-9.03516 l -88,-20 a 5.0005,5.0005 0 0 0 -5.89648,6.3125 l 11.05078,36.83594 -39.83399,33.19531 -20.613277,-61.83789 z m 156.04492,52.810544 -14.17968,40.17774 a 5.0005,5.0005 0 0 0 -0.0742,3.10156 l 21.29492,70.98633 a 5,5 0 0 0 -1.12109,1.65234 L 291.66602,243 h -75.42969 l -3.09961,-18.59375 3.60742,-10.82422 23.45703,-70.37305 33.67969,-22.45312 z m 121.92578,89.50196 -16.00585,38.41601 a 5.0005,5.0005 0 0 0 0.24414,4.35156 l 38.82421,69.88477 -18.1582,43.57812 -107.61914,32.28516 15.93945,-38.25195 a 5.0005,5.0005 0 0 0 -0.24414,-4.35156 l -38.82421,-69.88477 16.14843,-38.75586 30.56836,34.39063 a 5.0005,5.0005 0 0 0 2.65235,1.55859 l 33.7539,7.50195 30.91797,57.97071 a 5.0005,5.0005 0 0 0 8.99219,-4.35743 l -27.31641,-62.4375 3.58789,-14.3457 a 5.0005,5.0005 0 0 0 -0.10742,-2.79492 L 370.39648,219.37305 Z M 188,209 c 0,0 3.95624,0.0689 7.76367,1.97266 C 199.5711,212.87637 203,215.66667 203,224 a 5,5 0 0 0 0.0293,0.54492 5.0005,5.0005 0 0 0 0.004,0.0352 5,5 0 0 0 0.0469,0.30664 l 3.98828,23.93555 A 5.0005,5.0005 0 0 0 212,253 h 75.5 l -12.11523,29.07617 a 5.0005,5.0005 0 0 0 0.24414,4.35156 L 287.05859,307 H 212 a 5.0005,5.0005 0 0 0 -4.93164,4.17773 l -4,24 A 5.0005,5.0005 0 0 0 203,336 c 0,8.33333 -3.4289,11.12363 -7.23633,13.02734 C 191.95624,350.93106 188,351 188,351 c 0,0 -3.95624,-0.0689 -7.76367,-1.97266 C 176.4289,347.12363 173,344.33333 173,336 a 5.0005,5.0005 0 0 0 -0.11914,-1.08398 l -8,-36 A 5.0005,5.0005 0 0 0 160,295 H 140.10547 139.91602 80 a 5.0005,5.0005 0 0 0 -1.582031,0.25586 L 45.349609,306.2793 33,293.92969 v -27.85938 l 12.349609,-12.34961 33.06836,11.02344 A 5.0005,5.0005 0 0 0 80,265 h 80 a 5.0005,5.0005 0 0 0 4.88086,-3.91602 l 7.96484,-35.83789 3.22071,-11.27734 c 1.20313,-1.33215 2.65454,-2.23841 4.16992,-2.99609 C 184.04376,209.06894 188,209 188,209 Z m 222.17969,47.02539 56.8789,23.94922 -35.38281,14.74414 z M 143.60547,305 h 12.38281 l 7.06836,31.80469 c 0.0782,2.85801 0.55494,5.43766 1.31836,7.75 a 5,5 0 0 0 -1.11914,1.86328 l -12,36 a 5.0005,5.0005 0 0 0 0,3.16406 l 4,12 a 5.0005,5.0005 0 0 0 2.50781,2.89063 l 40,20 a 5.0005,5.0005 0 0 0 3.15821,0.4414 l 50.12695,-9.39844 -56.27344,66.20508 -88.46289,-46.15429 A 5.0005,5.0005 0 0 0 104,431 H 78 l 42,-56 a 5.0005,5.0005 0 0 0 0.74414,-1.41797 l 8,-24 z M 387,383.12109 V 388 a 5.0005,5.0005 0 0 0 1.0957,3.12305 l 16,20 a 5.0005,5.0005 0 0 0 6,1.41601 L 450.35938,393.95703 413.79688,480.375 329,421.38672 v -20.86719 z" />
    </g>
  </g>
  <g
     id="g1240">
    <g
       id="g1183"
       style="stroke-width:3;stroke-miterlimit:4;stroke-dasharray:none">
      <g
         id="g1298" />
    </g>
  </g>
</svg>
